<svg xmlns="http://www.w3.org/2000/svg" xmlns:xlink="http://www.w3.org/1999/xlink" width="108.914" height="108.914" viewBox="0 0 108.914 108.914">
  <defs>
    <filter id="Trazado_874925" x="0" y="0" width="108.914" height="108.914" filterUnits="userSpaceOnUse">
      <feOffset dy="3" input="SourceAlpha"/>
      <feGaussianBlur stdDeviation="3" result="blur"/>
      <feFlood flood-opacity="0.161"/>
      <feComposite operator="in" in2="blur"/>
      <feComposite in="SourceGraphic"/>
    </filter>
    <clipPath id="clip-path">
      <rect id="Rectángulo_403598" data-name="Rectángulo 403598" width="63.66" height="34.359" fill="none"/>
    </clipPath>
  </defs>
  <g id="Grupo_1108366" data-name="Grupo 1108366" transform="translate(-1127.325 -945.519)">
    <g id="Grupo_1107927" data-name="Grupo 1107927" transform="translate(1136.324 951.519)">
      <g transform="matrix(1, 0, 0, 1, -9, -6)" filter="url(#Trazado_874925)">
        <g id="Trazado_874925-2" data-name="Trazado 874925" transform="translate(9 6)" fill="#b0dcad" opacity="0.859">
          <path d="M 45.45676803588867 89.41407012939453 C 39.52198028564453 89.41407012939453 33.76551818847656 88.25206756591797 28.34726715087891 85.96034240722656 C 23.11311721801758 83.74648284912109 18.41204261779785 80.57682800292969 14.37464332580566 76.5394287109375 C 10.33724308013916 72.50202941894531 7.167593002319336 67.80095672607422 4.953730583190918 62.56679534912109 C 2.662005424499512 57.14855575561523 1.500005483627319 51.39208221435547 1.500005483627319 45.45729446411133 C 1.500005483627319 39.52198028564453 2.662005424499512 33.76551818847656 4.953730583190918 28.34726905822754 C 7.167593002319336 23.11310577392578 10.33724308013916 18.41203117370605 14.37464332580566 14.37464332580566 C 18.41204261779785 10.33724403381348 23.11311721801758 7.167593955993652 28.34726715087891 4.953731060028076 C 33.76551818847656 2.662006139755249 39.52198028564453 1.500006198883057 45.45676803588867 1.500006198883057 C 51.39155578613281 1.500006198883057 57.14802932739258 2.662006139755249 62.56626892089844 4.953731060028076 C 67.80043029785156 7.167593955993652 72.50150299072266 10.33724403381348 76.53890228271484 14.37464332580566 C 80.57630920410156 18.41203117370605 83.74595642089844 23.11310577392578 85.95981597900391 28.34726905822754 C 88.25154113769531 33.76551818847656 89.41354370117188 39.52198028564453 89.41354370117188 45.45676803588867 C 89.41354370117188 51.39208221435547 88.25154113769531 57.14855575561523 85.95981597900391 62.56679534912109 C 83.74595642089844 67.80095672607422 80.57630920410156 72.50202941894531 76.53890228271484 76.5394287109375 C 72.50150299072266 80.57682800292969 67.80043029785156 83.74648284912109 62.56626892089844 85.96034240722656 C 57.14802932739258 88.25206756591797 51.39155578613281 89.41407012939453 45.45676803588867 89.41407012939453 Z" stroke="none"/>
          <path d="M 45.45676803588867 3 C 39.72381210327148 3 34.1639404296875 4.12213134765625 28.93159484863281 6.335227966308594 C 23.87622833251953 8.473472595214844 19.33542633056641 11.53517150878906 15.43529510498047 15.435302734375 C 11.53517150878906 19.33543395996094 8.473464965820312 23.87622833251953 6.335227966308594 28.93160247802734 C 4.122123718261719 34.16394424438477 3 39.72381591796875 3 45.4572868347168 C 3 51.19024658203125 4.122123718261719 56.75011825561523 6.335227966308594 61.98246002197266 C 8.473464965820312 67.03782653808594 11.53517150878906 71.57862854003906 15.43529510498047 75.478759765625 C 19.33542633056641 79.37889099121094 23.87622833251953 82.44058990478516 28.93159484863281 84.57883453369141 C 34.1639404296875 86.79193115234375 39.72381210327148 87.9140625 45.45676803588867 87.9140625 C 51.18972396850586 87.9140625 56.74959564208984 86.79193115234375 61.98194122314453 84.57883453369141 C 67.03730773925781 82.44058990478516 71.57810974121094 79.37889099121094 75.47824096679688 75.478759765625 C 79.37837219238281 71.57862854003906 82.44007110595703 67.03782653808594 84.57830810546875 61.98246002197266 C 86.79141235351562 56.75011825561523 87.91353607177734 51.19024658203125 87.91353607177734 45.4567756652832 C 87.91353607177734 39.72381591796875 86.79141235351562 34.16394424438477 84.57830810546875 28.93160247802734 C 82.44007110595703 23.87622833251953 79.37837219238281 19.33543395996094 75.47824096679688 15.435302734375 C 71.57810974121094 11.53517150878906 67.03730773925781 8.473472595214844 61.98194122314453 6.335227966308594 C 56.74959564208984 4.12213134765625 51.18972396850586 3 45.45676803588867 3 M 45.45676803588867 0 C 70.56185150146484 0 90.91353607177734 20.35169219970703 90.91353607177734 45.4567756652832 L 90.91353607177734 45.4572868347168 C 90.91353607177734 70.5623779296875 70.56185150146484 90.9140625 45.45676803588867 90.9140625 C 20.3516845703125 90.9140625 0 70.5623779296875 0 45.4572868347168 L 0 45.4567756652832 C 0 20.35169219970703 20.3516845703125 0 45.45676803588867 0 Z" stroke="none" fill="#fff"/>
        </g>
      </g>
      <g id="Trazado_874923" data-name="Trazado 874923" transform="translate(0 0)" fill="none">
        <path d="M45.457,0A45.457,45.457,0,0,1,90.914,45.457h0A45.457,45.457,0,0,1,0,45.457H0A45.457,45.457,0,0,1,45.457,0Z" stroke="none"/>
        <path d="M 45.45676803588867 3 C 39.72381210327148 3 34.1639404296875 4.12213134765625 28.93159484863281 6.335227966308594 C 23.87622833251953 8.473472595214844 19.33542633056641 11.53517150878906 15.43529510498047 15.435302734375 C 11.53517150878906 19.33543395996094 8.473464965820312 23.87622833251953 6.335227966308594 28.93160247802734 C 4.122123718261719 34.16394424438477 3 39.72381591796875 3 45.4572868347168 C 3 51.19024658203125 4.122123718261719 56.75011825561523 6.335227966308594 61.98246002197266 C 8.473464965820312 67.03782653808594 11.53517150878906 71.57862854003906 15.43529510498047 75.478759765625 C 19.33542633056641 79.37889099121094 23.87622833251953 82.44058990478516 28.93159484863281 84.57883453369141 C 34.1639404296875 86.79193115234375 39.72381210327148 87.9140625 45.45676803588867 87.9140625 C 51.18972396850586 87.9140625 56.74959564208984 86.79193115234375 61.98194122314453 84.57883453369141 C 67.03730773925781 82.44058990478516 71.57810974121094 79.37889099121094 75.47824096679688 75.478759765625 C 79.37837219238281 71.57862854003906 82.44007110595703 67.03782653808594 84.57830810546875 61.98246002197266 C 86.79141235351562 56.75011825561523 87.91353607177734 51.19024658203125 87.91353607177734 45.4567756652832 C 87.91353607177734 39.72381591796875 86.79141235351562 34.16394424438477 84.57830810546875 28.93160247802734 C 82.44007110595703 23.87622833251953 79.37837219238281 19.33543395996094 75.47824096679688 15.435302734375 C 71.57810974121094 11.53517150878906 67.03730773925781 8.473472595214844 61.98194122314453 6.335227966308594 C 56.74959564208984 4.12213134765625 51.18972396850586 3 45.45676803588867 3 M 45.45676803588867 0 C 70.56185150146484 0 90.91353607177734 20.35169219970703 90.91353607177734 45.4567756652832 L 90.91353607177734 45.4572868347168 C 90.91353607177734 70.5623779296875 70.56185150146484 90.9140625 45.45676803588867 90.9140625 C 20.3516845703125 90.9140625 0 70.5623779296875 0 45.4572868347168 L 0 45.4567756652832 C 0 20.35169219970703 20.3516845703125 0 45.45676803588867 0 Z" stroke="none" fill="#fff"/>
      </g>
    </g>
    <g id="Grupo_1108350" data-name="Grupo 1108350" transform="translate(1146.34 979.796)">
      <g id="Grupo_1108349" data-name="Grupo 1108349" clip-path="url(#clip-path)">
        <path id="Trazado_913450" data-name="Trazado 913450" d="M8.826,6.811c-.4,2.4-1.065,6.317-1.693,9.725,2.018-.132,6.224-.382,9.02-.382,3.294,0,7.458.246,9.461.379-.62-3.09-1.509-7.291-2.041-9.792a5.814,5.814,0,0,1-.635.425,14.263,14.263,0,0,1-6.785,1.479A14.263,14.263,0,0,1,9.369,7.165a5.8,5.8,0,0,1-.543-.355M29.919,25.955c.22.71.441,1.408.653,2.075h9.881V25.955Zm30.3-24.109A1.191,1.191,0,1,0,61.058,3.3a1.189,1.189,0,0,0-.843-1.459M16.153,2.01A12.43,12.43,0,0,0,10.27,3.248c-.61.352-1.063.708-1.063,1.177S9.66,5.251,10.27,5.6a12.43,12.43,0,0,0,5.883,1.238A12.43,12.43,0,0,0,22.036,5.6c.61-.352,1.063-.708,1.063-1.177s-.453-.825-1.063-1.177A12.43,12.43,0,0,0,16.153,2.01M42.41,1.845a1.192,1.192,0,1,0,1.46.843,1.193,1.193,0,0,0-1.46-.843M5.347,23.522C4.262,26.911,2.9,30.669,2.2,32.555H30.15c-.622-1.874-1.857-5.647-2.848-9.04-1.818-.11-7.2-.413-11.149-.413-3.286,0-8.944.312-10.806.421M46.68,28.17H49.2V25.813H46.68Zm4.323,0h6.433V25.813H51Zm6.685-4.161a1.552,1.552,0,0,1,1.552,1.552v2.861a1.552,1.552,0,0,1-1.552,1.552H46.421a1.547,1.547,0,0,1-1.547-1.546V25.556a1.547,1.547,0,0,1,1.547-1.546Zm3.77-2.581h-18.8a.4.4,0,0,0-.4.4v10.33a.4.4,0,0,0,.4.4h18.8a.4.4,0,0,0,.4-.4V21.827a.391.391,0,0,0-.118-.282.4.4,0,0,0-.282-.117M6.789,18.366c-.174.878-.487,2.033-.871,3.316,2.328-.13,7.251-.385,10.234-.385,3.6,0,8.38.249,10.626.379-.346-1.264-.63-2.4-.8-3.266l-.008-.046c-1.711-.118-6.277-.407-9.822-.407-3,0-7.627.291-9.364.409M31.154,29.834c.638,1.96,1.1,3.334,1.1,3.334a.9.9,0,0,1-.853,1.192H.9a.9.9,0,0,1-.843-1.221s4.175-11.017,4.976-15.2c1-5.226,2.244-12.829,2.369-13.593A3.4,3.4,0,0,1,9.369,1.685,14.263,14.263,0,0,1,16.153.206a14.263,14.263,0,0,1,6.785,1.479A3.417,3.417,0,0,1,24.9,4.317c.2.938,2.08,9.709,2.853,13.755.282,1.472.912,3.742,1.614,6.078H40.453V21.827a2.2,2.2,0,0,1,2.2-2.2h3.586l-.333-1.238-1.288.346a.9.9,0,1,1-.469-1.743l1.291-.346-.353-1.323-1.291.346a.9.9,0,1,1-.466-1.743l1.288-.346-.353-1.323-1.291.346a.9.9,0,0,1-.466-1.743l1.291-.346-.356-1.323-1.291.346a.9.9,0,0,1-.466-1.743l1.291-.346L42.587,5.99a3,3,0,1,1,1.744-.467L44.72,6.98l1.291-.346a.9.9,0,0,1,.466,1.743l-1.288.346.353,1.323L46.833,9.7a.9.9,0,0,1,.466,1.743l-1.291.346.356,1.323,1.291-.346a.9.9,0,0,1,.466,1.743l-1.291.346.356,1.323,1.288-.346a.9.9,0,1,1,.469,1.743l-1.291.346.456,1.7h6.411l.456-1.7-1.291-.346a.9.9,0,0,1,.466-1.743l1.291.346.356-1.323-1.291-.346a.9.9,0,0,1,.466-1.743l1.291.346.353-1.323-1.288-.346A.9.9,0,0,1,55.795,9.7l1.291.346.353-1.323-1.291-.346a.9.9,0,1,1,.469-1.743l1.291.346L58.3,5.523a3,3,0,1,1,1.742.467l-.389,1.457,1.291.346a.9.9,0,1,1-.469,1.743l-1.288-.346-.356,1.323,1.291.346a.9.9,0,0,1-.466,1.743l-1.291-.346-.356,1.323,1.291.346a.9.9,0,0,1-.466,1.743l-1.291-.346-.353,1.323,1.291.346a.9.9,0,1,1-.469,1.743l-1.291-.346-.33,1.238h5.071a2.2,2.2,0,0,1,2.2,2.2v10.33a2.2,2.2,0,0,1-2.2,2.2h-18.8a2.2,2.2,0,0,1-2.2-2.2V29.834Z" transform="translate(0 0)" fill="#353535" fill-rule="evenodd"/>
      </g>
    </g>
  </g>
</svg>
