<svg xmlns="http://www.w3.org/2000/svg" xmlns:xlink="http://www.w3.org/1999/xlink" width="108.914" height="108.914" viewBox="0 0 108.914 108.914">
  <defs>
    <filter id="Trazado_874925" x="0" y="0" width="108.914" height="108.914" filterUnits="userSpaceOnUse">
      <feOffset dy="3" input="SourceAlpha"/>
      <feGaussianBlur stdDeviation="3" result="blur"/>
      <feFlood flood-opacity="0.161"/>
      <feComposite operator="in" in2="blur"/>
      <feComposite in="SourceGraphic"/>
    </filter>
    <clipPath id="clip-path">
      <rect id="Rectángulo_403601" data-name="Rectángulo 403601" width="52.668" height="48.878" fill="none"/>
    </clipPath>
  </defs>
  <g id="Grupo_1108359" data-name="Grupo 1108359" transform="translate(2911.071 10662.481)">
    <g id="Grupo_1107930" data-name="Grupo 1107930" transform="translate(-2902.071 -10656.481)">
      <g transform="matrix(1, 0, 0, 1, -9, -6)" filter="url(#Trazado_874925)">
        <g id="Trazado_874925-2" data-name="Trazado 874925" transform="translate(9 6)" fill="#b0dcad" opacity="0.859">
          <path d="M 45.45676803588867 89.41407012939453 C 39.52198028564453 89.41407012939453 33.76551818847656 88.25206756591797 28.34726715087891 85.96034240722656 C 23.11311721801758 83.74648284912109 18.41204261779785 80.57682800292969 14.37464332580566 76.5394287109375 C 10.33724308013916 72.50202941894531 7.167593002319336 67.80095672607422 4.953730583190918 62.56679534912109 C 2.662005424499512 57.14855575561523 1.500005483627319 51.39208221435547 1.500005483627319 45.45729446411133 C 1.500005483627319 39.52198028564453 2.662005424499512 33.76551818847656 4.953730583190918 28.34726905822754 C 7.167593002319336 23.11310577392578 10.33724308013916 18.41203117370605 14.37464332580566 14.37464332580566 C 18.41204261779785 10.33724403381348 23.11311721801758 7.167593955993652 28.34726715087891 4.953731060028076 C 33.76551818847656 2.662006139755249 39.52198028564453 1.500006198883057 45.45676803588867 1.500006198883057 C 51.39155578613281 1.500006198883057 57.14802932739258 2.662006139755249 62.56626892089844 4.953731060028076 C 67.80043029785156 7.167593955993652 72.50150299072266 10.33724403381348 76.53890228271484 14.37464332580566 C 80.57630920410156 18.41203117370605 83.74595642089844 23.11310577392578 85.95981597900391 28.34726905822754 C 88.25154113769531 33.76551818847656 89.41354370117188 39.52198028564453 89.41354370117188 45.45676803588867 C 89.41354370117188 51.39208221435547 88.25154113769531 57.14855575561523 85.95981597900391 62.56679534912109 C 83.74595642089844 67.80095672607422 80.57630920410156 72.50202941894531 76.53890228271484 76.5394287109375 C 72.50150299072266 80.57682800292969 67.80043029785156 83.74648284912109 62.56626892089844 85.96034240722656 C 57.14802932739258 88.25206756591797 51.39155578613281 89.41407012939453 45.45676803588867 89.41407012939453 Z" stroke="none"/>
          <path d="M 45.45676803588867 3 C 39.72381210327148 3 34.1639404296875 4.12213134765625 28.93159484863281 6.335227966308594 C 23.87622833251953 8.473472595214844 19.33542633056641 11.53517150878906 15.43529510498047 15.435302734375 C 11.53517150878906 19.33543395996094 8.473464965820312 23.87622833251953 6.335227966308594 28.93160247802734 C 4.122123718261719 34.16394424438477 3 39.72381591796875 3 45.4572868347168 C 3 51.19024658203125 4.122123718261719 56.75011825561523 6.335227966308594 61.98246002197266 C 8.473464965820312 67.03782653808594 11.53517150878906 71.57862854003906 15.43529510498047 75.478759765625 C 19.33542633056641 79.37889099121094 23.87622833251953 82.44058990478516 28.93159484863281 84.57883453369141 C 34.1639404296875 86.79193115234375 39.72381210327148 87.9140625 45.45676803588867 87.9140625 C 51.18972396850586 87.9140625 56.74959564208984 86.79193115234375 61.98194122314453 84.57883453369141 C 67.03730773925781 82.44058990478516 71.57810974121094 79.37889099121094 75.47824096679688 75.478759765625 C 79.37837219238281 71.57862854003906 82.44007110595703 67.03782653808594 84.57830810546875 61.98246002197266 C 86.79141235351562 56.75011825561523 87.91353607177734 51.19024658203125 87.91353607177734 45.4567756652832 C 87.91353607177734 39.72381591796875 86.79141235351562 34.16394424438477 84.57830810546875 28.93160247802734 C 82.44007110595703 23.87622833251953 79.37837219238281 19.33543395996094 75.47824096679688 15.435302734375 C 71.57810974121094 11.53517150878906 67.03730773925781 8.473472595214844 61.98194122314453 6.335227966308594 C 56.74959564208984 4.12213134765625 51.18972396850586 3 45.45676803588867 3 M 45.45676803588867 0 C 70.56185150146484 0 90.91353607177734 20.35169219970703 90.91353607177734 45.4567756652832 L 90.91353607177734 45.4572868347168 C 90.91353607177734 70.5623779296875 70.56185150146484 90.9140625 45.45676803588867 90.9140625 C 20.3516845703125 90.9140625 0 70.5623779296875 0 45.4572868347168 L 0 45.4567756652832 C 0 20.35169219970703 20.3516845703125 0 45.45676803588867 0 Z" stroke="none" fill="#fff"/>
        </g>
      </g>
      <g id="Trazado_874923" data-name="Trazado 874923" transform="translate(0 0)" fill="none">
        <path d="M45.457,0A45.457,45.457,0,0,1,90.914,45.457h0A45.457,45.457,0,0,1,0,45.457H0A45.457,45.457,0,0,1,45.457,0Z" stroke="none"/>
        <path d="M 45.45676803588867 3 C 39.72381210327148 3 34.1639404296875 4.12213134765625 28.93159484863281 6.335227966308594 C 23.87622833251953 8.473472595214844 19.33542633056641 11.53517150878906 15.43529510498047 15.435302734375 C 11.53517150878906 19.33543395996094 8.473464965820312 23.87622833251953 6.335227966308594 28.93160247802734 C 4.122123718261719 34.16394424438477 3 39.72381591796875 3 45.4572868347168 C 3 51.19024658203125 4.122123718261719 56.75011825561523 6.335227966308594 61.98246002197266 C 8.473464965820312 67.03782653808594 11.53517150878906 71.57862854003906 15.43529510498047 75.478759765625 C 19.33542633056641 79.37889099121094 23.87622833251953 82.44058990478516 28.93159484863281 84.57883453369141 C 34.1639404296875 86.79193115234375 39.72381210327148 87.9140625 45.45676803588867 87.9140625 C 51.18972396850586 87.9140625 56.74959564208984 86.79193115234375 61.98194122314453 84.57883453369141 C 67.03730773925781 82.44058990478516 71.57810974121094 79.37889099121094 75.47824096679688 75.478759765625 C 79.37837219238281 71.57862854003906 82.44007110595703 67.03782653808594 84.57830810546875 61.98246002197266 C 86.79141235351562 56.75011825561523 87.91353607177734 51.19024658203125 87.91353607177734 45.4567756652832 C 87.91353607177734 39.72381591796875 86.79141235351562 34.16394424438477 84.57830810546875 28.93160247802734 C 82.44007110595703 23.87622833251953 79.37837219238281 19.33543395996094 75.47824096679688 15.435302734375 C 71.57810974121094 11.53517150878906 67.03730773925781 8.473472595214844 61.98194122314453 6.335227966308594 C 56.74959564208984 4.12213134765625 51.18972396850586 3 45.45676803588867 3 M 45.45676803588867 0 C 70.56185150146484 0 90.91353607177734 20.35169219970703 90.91353607177734 45.4567756652832 L 90.91353607177734 45.4572868347168 C 90.91353607177734 70.5623779296875 70.56185150146484 90.9140625 45.45676803588867 90.9140625 C 20.3516845703125 90.9140625 0 70.5623779296875 0 45.4572868347168 L 0 45.4567756652832 C 0 20.35169219970703 20.3516845703125 0 45.45676803588867 0 Z" stroke="none" fill="#fff"/>
      </g>
    </g>
    <g id="Grupo_1108358" data-name="Grupo 1108358" transform="translate(-2879.275 -10637.043)">
      <g id="Grupo_1108357" data-name="Grupo 1108357" clip-path="url(#clip-path)">
        <path id="Trazado_913453" data-name="Trazado 913453" d="M33.727,25.187h0l-26.968,5.3a.738.738,0,0,1-.144.014,1.643,1.643,0,0,0-1.642,1.643v.541A1.643,1.643,0,0,0,6.55,34.33c1.589-.316,26.682-5.3,27.074-5.317a1.657,1.657,0,0,0,1.68-1.644v-.541a1.643,1.643,0,0,0-1.576-1.642M37.4,41.144H2.88A1.386,1.386,0,0,0,1.494,42.53V46A1.386,1.386,0,0,0,2.88,47.385H37.4A1.385,1.385,0,0,0,38.783,46V42.53A1.385,1.385,0,0,0,37.4,41.144m-3.8-1.493A1.707,1.707,0,0,0,35.3,37.945V37.53A1.707,1.707,0,0,0,33.6,35.824H6.679A1.707,1.707,0,0,0,4.973,37.53v.415a1.707,1.707,0,0,0,1.706,1.706ZM6.564,29.008,26,25.185H6.679a1.707,1.707,0,0,0-1.706,1.706v.415a1.706,1.706,0,0,0,1.591,1.7m27.122,1.5c-.458.053-11.682,2.276-19.492,3.827H46.913s0-.184,0-.185l-.017-1.713v-.015l-.017-1.7a.071.071,0,0,1,0-.021V30.5ZM33.6,23.693A1.707,1.707,0,0,0,35.3,21.987v-.415A1.707,1.707,0,0,0,33.6,19.866H6.679a1.707,1.707,0,0,0-1.706,1.706v.415a1.707,1.707,0,0,0,1.706,1.706Zm0-5.32A1.707,1.707,0,0,0,35.3,16.667v-.415A1.706,1.706,0,0,0,33.6,14.546H6.679a1.706,1.706,0,0,0-1.706,1.706v.415a1.707,1.707,0,0,0,1.706,1.706Zm0-5.32A1.707,1.707,0,0,0,35.3,11.348v-.415A1.707,1.707,0,0,0,33.6,9.227H6.679a1.707,1.707,0,0,0-1.706,1.706v.415a1.707,1.707,0,0,0,1.706,1.706ZM2.88,7.734H37.4a1.385,1.385,0,0,0,1.386-1.386V2.879A1.385,1.385,0,0,0,37.4,1.493H2.88A1.386,1.386,0,0,0,1.494,2.879v3.47A1.386,1.386,0,0,0,2.88,7.734M3.973,9.227H2.88A2.879,2.879,0,0,1,0,6.348V2.879A2.879,2.879,0,0,1,2.88,0H37.4a2.879,2.879,0,0,1,2.88,2.879v3.47A2.879,2.879,0,0,1,37.4,9.227H36.3a3.193,3.193,0,0,1,.492,1.706v.415a3.2,3.2,0,0,1-.937,2.262c-.066.067-.136.13-.208.19.072.06.142.124.208.19a3.2,3.2,0,0,1,.937,2.262v.415a3.2,3.2,0,0,1-.937,2.262c-.066.067-.136.13-.208.19.072.06.142.124.208.19a3.2,3.2,0,0,1,.937,2.262v.415a3.2,3.2,0,0,1-.937,2.262c-.059.061-.123.118-.186.174A3.131,3.131,0,0,1,36.8,26.829v.541a3.134,3.134,0,0,1-.447,1.643H46.875a1.494,1.494,0,0,1,1.379.923,7.453,7.453,0,0,0,2.119-.375.746.746,0,1,1,.559,1.384,8.555,8.555,0,0,1-2.558.479l0,.249h3.543a.746.746,0,0,1,0,1.493H48.394l0,.243a8.666,8.666,0,0,1,2.67.485.746.746,0,1,1-.557,1.384,7.584,7.584,0,0,0-2.214-.38,1.5,1.5,0,0,1-1.382.927H36.3A3.193,3.193,0,0,1,36.8,37.53v.415a3.193,3.193,0,0,1-.492,1.706H37.4a2.878,2.878,0,0,1,2.88,2.879V46a2.879,2.879,0,0,1-2.88,2.879H2.88A2.879,2.879,0,0,1,0,46V42.53a2.878,2.878,0,0,1,2.88-2.879H3.973a3.193,3.193,0,0,1-.492-1.706V37.53a3.2,3.2,0,0,1,.937-2.262c.059-.061.123-.118.186-.174a3.131,3.131,0,0,1-1.123-2.406v-.541A3.131,3.131,0,0,1,4.6,29.742c-.064-.055-.127-.113-.186-.174a3.2,3.2,0,0,1-.937-2.262v-.415a3.2,3.2,0,0,1,.937-2.262c.066-.067.136-.13.208-.19-.072-.06-.142-.124-.208-.19a3.2,3.2,0,0,1-.937-2.262v-.415a3.2,3.2,0,0,1,.937-2.262c.066-.067.136-.13.208-.19-.072-.06-.142-.124-.208-.19a3.2,3.2,0,0,1-.937-2.262v-.415a3.2,3.2,0,0,1,.937-2.262c.066-.067.136-.13.208-.19-.072-.06-.142-.124-.208-.19a3.2,3.2,0,0,1-.937-2.262v-.415a3.193,3.193,0,0,1,.492-1.706" fill="#353535" fill-rule="evenodd"/>
      </g>
    </g>
  </g>
</svg>
