<svg xmlns="http://www.w3.org/2000/svg" xmlns:xlink="http://www.w3.org/1999/xlink" width="108.914" height="108.914" viewBox="0 0 108.914 108.914">
  <defs>
    <filter id="Trazado_874925" x="0" y="0" width="108.914" height="108.914" filterUnits="userSpaceOnUse">
      <feOffset dy="3" input="SourceAlpha"/>
      <feGaussianBlur stdDeviation="3" result="blur"/>
      <feFlood flood-opacity="0.161"/>
      <feComposite operator="in" in2="blur"/>
      <feComposite in="SourceGraphic"/>
    </filter>
    <clipPath id="clip-path">
      <rect id="Rectángulo_403602" data-name="Rectángulo 403602" width="51.664" height="64.088" fill="none"/>
    </clipPath>
  </defs>
  <g id="Grupo_1108362" data-name="Grupo 1108362" transform="translate(-813.043 -945.519)">
    <g id="Grupo_1107654" data-name="Grupo 1107654" transform="translate(822.043 951.519)">
      <g transform="matrix(1, 0, 0, 1, -9, -6)" filter="url(#Trazado_874925)">
        <g id="Trazado_874925-2" data-name="Trazado 874925" transform="translate(9 6)" fill="#b0dcad" opacity="0.859">
          <path d="M 45.45676803588867 89.41407012939453 C 39.52198028564453 89.41407012939453 33.76551818847656 88.25206756591797 28.34726715087891 85.96034240722656 C 23.11311721801758 83.74648284912109 18.41204261779785 80.57682800292969 14.37464332580566 76.5394287109375 C 10.33724308013916 72.50202941894531 7.167593002319336 67.80095672607422 4.953730583190918 62.56679534912109 C 2.662005424499512 57.14855575561523 1.500005483627319 51.39208221435547 1.500005483627319 45.45729446411133 C 1.500005483627319 39.52198028564453 2.662005424499512 33.76551818847656 4.953730583190918 28.34726905822754 C 7.167593002319336 23.11310577392578 10.33724308013916 18.41203117370605 14.37464332580566 14.37464332580566 C 18.41204261779785 10.33724403381348 23.11311721801758 7.167593955993652 28.34726715087891 4.953731060028076 C 33.76551818847656 2.662006139755249 39.52198028564453 1.500006198883057 45.45676803588867 1.500006198883057 C 51.39155578613281 1.500006198883057 57.14802932739258 2.662006139755249 62.56626892089844 4.953731060028076 C 67.80043029785156 7.167593955993652 72.50150299072266 10.33724403381348 76.53890228271484 14.37464332580566 C 80.57630920410156 18.41203117370605 83.74595642089844 23.11310577392578 85.95981597900391 28.34726905822754 C 88.25154113769531 33.76551818847656 89.41354370117188 39.52198028564453 89.41354370117188 45.45676803588867 C 89.41354370117188 51.39208221435547 88.25154113769531 57.14855575561523 85.95981597900391 62.56679534912109 C 83.74595642089844 67.80095672607422 80.57630920410156 72.50202941894531 76.53890228271484 76.5394287109375 C 72.50150299072266 80.57682800292969 67.80043029785156 83.74648284912109 62.56626892089844 85.96034240722656 C 57.14802932739258 88.25206756591797 51.39155578613281 89.41407012939453 45.45676803588867 89.41407012939453 Z" stroke="none"/>
          <path d="M 45.45676803588867 3 C 39.72381210327148 3 34.1639404296875 4.12213134765625 28.93159484863281 6.335227966308594 C 23.87622833251953 8.473472595214844 19.33542633056641 11.53517150878906 15.43529510498047 15.435302734375 C 11.53517150878906 19.33543395996094 8.473464965820312 23.87622833251953 6.335227966308594 28.93160247802734 C 4.122123718261719 34.16394424438477 3 39.72381591796875 3 45.4572868347168 C 3 51.19024658203125 4.122123718261719 56.75011825561523 6.335227966308594 61.98246002197266 C 8.473464965820312 67.03782653808594 11.53517150878906 71.57862854003906 15.43529510498047 75.478759765625 C 19.33542633056641 79.37889099121094 23.87622833251953 82.44058990478516 28.93159484863281 84.57883453369141 C 34.1639404296875 86.79193115234375 39.72381210327148 87.9140625 45.45676803588867 87.9140625 C 51.18972396850586 87.9140625 56.74959564208984 86.79193115234375 61.98194122314453 84.57883453369141 C 67.03730773925781 82.44058990478516 71.57810974121094 79.37889099121094 75.47824096679688 75.478759765625 C 79.37837219238281 71.57862854003906 82.44007110595703 67.03782653808594 84.57830810546875 61.98246002197266 C 86.79141235351562 56.75011825561523 87.91353607177734 51.19024658203125 87.91353607177734 45.4567756652832 C 87.91353607177734 39.72381591796875 86.79141235351562 34.16394424438477 84.57830810546875 28.93160247802734 C 82.44007110595703 23.87622833251953 79.37837219238281 19.33543395996094 75.47824096679688 15.435302734375 C 71.57810974121094 11.53517150878906 67.03730773925781 8.473472595214844 61.98194122314453 6.335227966308594 C 56.74959564208984 4.12213134765625 51.18972396850586 3 45.45676803588867 3 M 45.45676803588867 0 C 70.56185150146484 0 90.91353607177734 20.35169219970703 90.91353607177734 45.4567756652832 L 90.91353607177734 45.4572868347168 C 90.91353607177734 70.5623779296875 70.56185150146484 90.9140625 45.45676803588867 90.9140625 C 20.3516845703125 90.9140625 0 70.5623779296875 0 45.4572868347168 L 0 45.4567756652832 C 0 20.35169219970703 20.3516845703125 0 45.45676803588867 0 Z" stroke="none" fill="#fff"/>
        </g>
      </g>
      <g id="Trazado_874923" data-name="Trazado 874923" transform="translate(0 0)" fill="none">
        <path d="M45.457,0A45.457,45.457,0,0,1,90.914,45.457h0A45.457,45.457,0,0,1,0,45.457H0A45.457,45.457,0,0,1,45.457,0Z" stroke="none"/>
        <path d="M 45.45676803588867 3 C 39.72381210327148 3 34.1639404296875 4.12213134765625 28.93159484863281 6.335227966308594 C 23.87622833251953 8.473472595214844 19.33542633056641 11.53517150878906 15.43529510498047 15.435302734375 C 11.53517150878906 19.33543395996094 8.473464965820312 23.87622833251953 6.335227966308594 28.93160247802734 C 4.122123718261719 34.16394424438477 3 39.72381591796875 3 45.4572868347168 C 3 51.19024658203125 4.122123718261719 56.75011825561523 6.335227966308594 61.98246002197266 C 8.473464965820312 67.03782653808594 11.53517150878906 71.57862854003906 15.43529510498047 75.478759765625 C 19.33542633056641 79.37889099121094 23.87622833251953 82.44058990478516 28.93159484863281 84.57883453369141 C 34.1639404296875 86.79193115234375 39.72381210327148 87.9140625 45.45676803588867 87.9140625 C 51.18972396850586 87.9140625 56.74959564208984 86.79193115234375 61.98194122314453 84.57883453369141 C 67.03730773925781 82.44058990478516 71.57810974121094 79.37889099121094 75.47824096679688 75.478759765625 C 79.37837219238281 71.57862854003906 82.44007110595703 67.03782653808594 84.57830810546875 61.98246002197266 C 86.79141235351562 56.75011825561523 87.91353607177734 51.19024658203125 87.91353607177734 45.4567756652832 C 87.91353607177734 39.72381591796875 86.79141235351562 34.16394424438477 84.57830810546875 28.93160247802734 C 82.44007110595703 23.87622833251953 79.37837219238281 19.33543395996094 75.47824096679688 15.435302734375 C 71.57810974121094 11.53517150878906 67.03730773925781 8.473472595214844 61.98194122314453 6.335227966308594 C 56.74959564208984 4.12213134765625 51.18972396850586 3 45.45676803588867 3 M 45.45676803588867 0 C 70.56185150146484 0 90.91353607177734 20.35169219970703 90.91353607177734 45.4567756652832 L 90.91353607177734 45.4572868347168 C 90.91353607177734 70.5623779296875 70.56185150146484 90.9140625 45.45676803588867 90.9140625 C 20.3516845703125 90.9140625 0 70.5623779296875 0 45.4572868347168 L 0 45.4567756652832 C 0 20.35169219970703 20.3516845703125 0 45.45676803588867 0 Z" stroke="none" fill="#fff"/>
      </g>
    </g>
    <g id="Grupo_1108361" data-name="Grupo 1108361" transform="translate(843.336 967.473)">
      <g id="Grupo_1108360" data-name="Grupo 1108360" clip-path="url(#clip-path)">
        <path id="Trazado_913454" data-name="Trazado 913454" d="M36.167,34.5a1.494,1.494,0,1,1-1.493-1.493A1.5,1.5,0,0,1,36.167,34.5M23.28,24.716h4.394a2.377,2.377,0,0,0-4.394,0m-9.292-5.654a.908.908,0,1,1-1.707-.621,14.044,14.044,0,0,1,26.392,0,.908.908,0,1,1-1.707.621,12.227,12.227,0,0,0-22.978,0m15.584,5.654H39.686a.59.59,0,0,0,.585-.585V8.823a.585.585,0,0,0-.585-.585H11.27a.581.581,0,0,0-.585.585V24.131a.585.585,0,0,0,.585.585H21.382a4.2,4.2,0,0,1,2-2.725l-3.5-6.549a.908.908,0,1,1,1.6-.859l3.666,6.858c.108-.008.217-.013.327-.013a4.2,4.2,0,0,1,4.094,3.287M39.686,6.42a2.4,2.4,0,0,1,2.4,2.4V24.131a2.4,2.4,0,0,1-2.4,2.4H11.27a2.4,2.4,0,0,1-2.4-2.4V8.823a2.4,2.4,0,0,1,2.4-2.4ZM17.775,34.5a1.494,1.494,0,1,1-1.493-1.493A1.5,1.5,0,0,1,17.775,34.5m4.5,12.4a5.514,5.514,0,0,0,7.691-7.691Zm6.4-8.975a5.513,5.513,0,0,0-7.689,7.691Zm-3.2-2.844a7.33,7.33,0,1,1-7.33,7.33,7.334,7.334,0,0,1,7.33-7.33M35.906,48c.665.044,1.575.111,2.638.222V31.951A1.558,1.558,0,0,1,40.1,30.394h5.848a1.686,1.686,0,0,0,1.686-1.686V3.5a1.686,1.686,0,0,0-1.686-1.686H5A1.686,1.686,0,0,0,3.318,3.5V28.707A1.686,1.686,0,0,0,5,30.394h5.848a1.558,1.558,0,0,1,1.557,1.557V48.262c1.018-.111,1.916-.186,2.62-.235a1.494,1.494,0,1,1,.139,1.81c-.73.052-1.679.131-2.759.25v.905A1.687,1.687,0,0,0,14.1,52.678H36.858a1.687,1.687,0,0,0,1.686-1.686v-.946c-1.106-.116-2.052-.191-2.736-.235a1.492,1.492,0,1,1,.1-1.813M31.428,62.27h5.915V60.564H31.428ZM14.008,59.64h5.915V57.934H14.008Zm-1.815.046c-.271,0-.526-.008-.763-.013-3.2-.07-5.778-.072-7.815-.887a5.441,5.441,0,0,1-3.38-3.1,3.5,3.5,0,0,1,.188-2.919,5.265,5.265,0,0,1,2.7-2.46,21.678,21.678,0,0,1,5.941-1.6c.523-.085,1.036-.16,1.534-.227V32.209H5a3.5,3.5,0,0,1-3.5-3.5V3.5A3.5,3.5,0,0,1,5,0H45.949a3.5,3.5,0,0,1,3.5,3.5V28.707a3.5,3.5,0,0,1-3.5,3.5h-5.59v16.22c.621.08,1.271.173,1.934.278a24.258,24.258,0,0,1,5.9,1.578,7.344,7.344,0,0,1,2.437,1.954,6.3,6.3,0,0,1,1.018,4.123,5.634,5.634,0,0,1-3.177,4.551c-2.529,1.382-5.283,1.256-8.506,1.374-.245.008-.516.015-.807.021v.124A1.655,1.655,0,0,1,37.5,64.088h-6.24a1.655,1.655,0,0,1-1.653-1.655v-.106H26.488a.909.909,0,0,1,0-1.818h3.125V60.4a1.655,1.655,0,0,1,1.653-1.655H37.5A1.655,1.655,0,0,1,39.158,60.4v.09c.266-.005.513-.013.74-.021,2.914-.108,5.417.1,7.7-1.153a3.894,3.894,0,0,0,2.235-3.068,4.5,4.5,0,0,0-.665-2.932,5.239,5.239,0,0,0-1.738-1.385A22.4,22.4,0,0,0,42,50.5q-.843-.135-1.645-.24v.732a3.5,3.5,0,0,1-3.5,3.5H14.1a3.5,3.5,0,0,1-3.5-3.5v-.678q-.611.085-1.245.186a20.024,20.024,0,0,0-5.386,1.416c-1.078.565-1.65,1.018-1.854,1.526a2.034,2.034,0,0,0-.142,1.7A3.628,3.628,0,0,0,4.29,57.1c1.869.748,4.239.694,7.181.758.224.005.467.01.722.013v-.1a1.651,1.651,0,0,1,1.653-1.653h6.24a1.651,1.651,0,0,1,1.653,1.653v.108h3.125a.908.908,0,0,1,0,1.815H21.738V59.8a1.655,1.655,0,0,1-1.653,1.655h-6.24A1.655,1.655,0,0,1,12.193,59.8Z" transform="translate(0 0)" fill="#353535" fill-rule="evenodd"/>
      </g>
    </g>
  </g>
</svg>
