<svg xmlns="http://www.w3.org/2000/svg" xmlns:xlink="http://www.w3.org/1999/xlink" width="74" height="74" viewBox="0 0 74 74">
  <defs>
    <clipPath id="clip-path">
      <rect id="Rectángulo_403606" data-name="Rectángulo 403606" width="51.302" height="37.28" fill="#fbfbf9"/>
    </clipPath>
  </defs>
  <g id="Grupo_1108375" data-name="Grupo 1108375" transform="translate(-600.396 -2064)">
    <circle id="Elipse_11621" data-name="Elipse 11621" cx="37" cy="37" r="37" transform="translate(600.396 2064)" fill="#692cb7"/>
    <g id="Grupo_1108374" data-name="Grupo 1108374" transform="translate(614.026 2082.547)">
      <g id="Grupo_1108373" data-name="Grupo 1108373" clip-path="url(#clip-path)">
        <path id="Trazado_913484" data-name="Trazado 913484" d="M13.628,297.285H8.056a.623.623,0,0,1-.623-.623v-5.85a.624.624,0,0,1,.623-.623h5.571a.624.624,0,0,1,.623.623v5.85a.623.623,0,0,1-.623.623M8.68,296.038H13v-4.6H8.68Z" transform="translate(-6.661 -260.035)" fill="#fbfbf9"/>
        <path id="Trazado_913485" data-name="Trazado 913485" d="M109.246,258.848h-5.571a.623.623,0,0,1-.623-.623V247.917a.624.624,0,0,1,.623-.623h5.571a.623.623,0,0,1,.623.623v10.307a.623.623,0,0,1-.623.623M104.3,257.6h4.324v-9.06H104.3Z" transform="translate(-92.343 -221.598)" fill="#fbfbf9"/>
        <path id="Trazado_913486" data-name="Trazado 913486" d="M204.865,189.181h-5.571a.623.623,0,0,1-.623-.623V170.172a.623.623,0,0,1,.623-.623h5.571a.623.623,0,0,1,.623.623v18.385a.623.623,0,0,1-.623.623m-4.948-1.247h4.324V170.8h-4.324Z" transform="translate(-178.027 -151.932)" fill="#fbfbf9"/>
        <path id="Trazado_913487" data-name="Trazado 913487" d="M294.911,29.93a.623.623,0,0,1-.623-.623V3.957a.623.623,0,0,1,.623-.623h5.571a.623.623,0,0,1,.623.623V20.152a.623.623,0,1,1-1.247,0V4.581h-4.324V29.307a.623.623,0,0,1-.623.623" transform="translate(-263.709 -2.988)" fill="#fbfbf9"/>
        <path id="Trazado_913488" data-name="Trazado 913488" d="M3.439,21.339A.621.621,0,0,1,3,21.156L.183,18.341a.624.624,0,0,1,0-.882L13.808,3.834,11.535,1.561A.623.623,0,0,1,11.948.5L23.16,0a.623.623,0,0,1,.65.65l-.494,11.214a.623.623,0,0,1-1.064.413L19.979,10l-7.118,7.118a.623.623,0,0,1-.882-.882l7.559-7.559a.623.623,0,0,1,.882,0L22.132,10.4l.4-9.119-9.117.4,1.713,1.713a.623.623,0,0,1,0,.882L1.506,17.9,3.88,20.274a.623.623,0,0,1-.441,1.064" transform="translate(0 0)" fill="#fbfbf9"/>
        <path id="Trazado_913489" data-name="Trazado 913489" d="M46.472,347.734H8.338a.623.623,0,1,1,0-1.247H46.472a.623.623,0,1,1,0,1.247" transform="translate(-6.913 -310.484)" fill="#fbfbf9"/>
        <path id="Trazado_913490" data-name="Trazado 913490" d="M312.137,197.268h-14.7a3,3,0,0,1-2.6-4.5l7.35-12.731a3,3,0,0,1,5.194,0l7.351,12.731a3,3,0,0,1-2.6,4.5m-7.351-17.482a1.734,1.734,0,0,0-1.517.876l-7.351,12.731a1.752,1.752,0,0,0,1.517,2.628h14.7a1.752,1.752,0,0,0,1.517-2.628L306.3,180.662a1.734,1.734,0,0,0-1.517-.876" transform="translate(-263.839 -159.987)" fill="#fbfbf9"/>
        <path id="Trazado_913491" data-name="Trazado 913491" d="M389.005,225.525a.624.624,0,0,1-.623-.623v-6.912a.623.623,0,0,1,1.247,0V224.9a.624.624,0,0,1-.623.623" transform="translate(-348.026 -194.78)" fill="#fbfbf9"/>
        <path id="Trazado_913492" data-name="Trazado 913492" d="M388.4,312.5a.624.624,0,0,1-.623-.623v-.754a.623.623,0,1,1,1.247,0v.754a.624.624,0,0,1-.623.623" transform="translate(-347.484 -278.236)" fill="#fbfbf9"/>
      </g>
    </g>
  </g>
</svg>
