<svg xmlns="http://www.w3.org/2000/svg" xmlns:xlink="http://www.w3.org/1999/xlink" width="295" height="285" viewBox="0 0 295 285">
  <defs>
    <clipPath id="clip-path">
      <rect id="Rectángulo_403587" data-name="Rectángulo 403587" width="272.001" height="182.161" fill="none"/>
    </clipPath>
    <clipPath id="clip-path-3">
      <rect id="Rectángulo_403559" data-name="Rectángulo 403559" width="184.731" height="119.123" fill="none"/>
    </clipPath>
    <clipPath id="clip-path-5">
      <rect id="Rectángulo_403579" data-name="Rectángulo 403579" width="7.983" height="7.983" fill="none"/>
    </clipPath>
    <clipPath id="clip-path-6">
      <rect id="Rectángulo_403580" data-name="Rectángulo 403580" width="5.208" height="5.208" fill="none"/>
    </clipPath>
    <clipPath id="clip-path-7">
      <rect id="Rectángulo_403581" data-name="Rectángulo 403581" width="2.515" height="2.514" fill="none"/>
    </clipPath>
    <clipPath id="clip-path-8">
      <rect id="Rectángulo_403582" data-name="Rectángulo 403582" width="6.473" height="6.473" fill="none"/>
    </clipPath>
    <clipPath id="clip-path-9">
      <rect id="Rectángulo_403583" data-name="Rectángulo 403583" width="14.367" height="14.367" fill="none"/>
    </clipPath>
    <clipPath id="clip-path-10">
      <rect id="Rectángulo_403584" data-name="Rectángulo 403584" width="2.016" height="2.017" fill="none"/>
    </clipPath>
  </defs>
  <g id="Grupo_1108324" data-name="Grupo 1108324" transform="translate(-600.051 -1634)">
    <rect id="Rectángulo_403250" data-name="Rectángulo 403250" width="295" height="285" rx="10" transform="translate(600.051 1634)" fill="#e0d4f0"/>
    <g id="Grupo_1108323" data-name="Grupo 1108323" transform="translate(611.551 1685.42)">
      <g id="Grupo_1108322" data-name="Grupo 1108322" clip-path="url(#clip-path)">
        <g id="Grupo_1108301" data-name="Grupo 1108301">
          <g id="Grupo_1108300" data-name="Grupo 1108300" clip-path="url(#clip-path)">
            <g id="Grupo_1108299" data-name="Grupo 1108299" transform="translate(53.778 28.079)" opacity="0.5">
              <g id="Grupo_1108298" data-name="Grupo 1108298">
                <g id="Grupo_1108297" data-name="Grupo 1108297" clip-path="url(#clip-path-3)">
                  <rect id="Rectángulo_403558" data-name="Rectángulo 403558" width="184.731" height="119.123" transform="translate(0 0)" fill="#8f93f9"/>
                </g>
              </g>
            </g>
          </g>
        </g>
        <rect id="Rectángulo_403561" data-name="Rectángulo 403561" width="184.731" height="119.123" transform="translate(53.778 28.079)" fill="none" stroke="#0f0e13" stroke-linejoin="round" stroke-width="0.95"/>
        <line id="Línea_697" data-name="Línea 697" x2="184.731" transform="translate(53.778 40.54)" fill="none" stroke="#0f0e13" stroke-linejoin="round" stroke-width="1"/>
        <rect id="Rectángulo_403562" data-name="Rectángulo 403562" width="13.744" height="13.744" transform="translate(230.05 21.207)" fill="#e9a134"/>
        <rect id="Rectángulo_403563" data-name="Rectángulo 403563" width="13.744" height="13.744" transform="translate(246.435 21.207)" fill="#dd3d60"/>
        <rect id="Rectángulo_403564" data-name="Rectángulo 403564" width="13.744" height="13.744" transform="translate(213.664 21.207)" fill="#4d89f5"/>
        <line id="Línea_698" data-name="Línea 698" x2="7.97" y2="7.97" transform="translate(249.322 24.094)" fill="none" stroke="#181820" stroke-miterlimit="10" stroke-width="1.115"/>
        <line id="Línea_699" data-name="Línea 699" x1="7.97" y2="7.97" transform="translate(249.322 24.094)" fill="none" stroke="#181820" stroke-miterlimit="10" stroke-width="1.115"/>
        <line id="Línea_700" data-name="Línea 700" x2="7.97" y2="7.97" transform="translate(232.937 24.094)" fill="none" stroke="#181820" stroke-miterlimit="10" stroke-width="1.115"/>
        <rect id="Rectángulo_403565" data-name="Rectángulo 403565" width="7.97" height="7.97" transform="translate(232.936 24.094)" fill="none" stroke="#181820" stroke-miterlimit="10" stroke-width="1.115"/>
        <line id="Línea_701" data-name="Línea 701" x2="11.271" transform="translate(214.901 32.063)" fill="none" stroke="#181820" stroke-miterlimit="10" stroke-width="1.115"/>
        <g id="Grupo_1108321" data-name="Grupo 1108321">
          <g id="Grupo_1108320" data-name="Grupo 1108320" clip-path="url(#clip-path)">
            <path id="Trazado_913304" data-name="Trazado 913304" d="M346.122,163.165a15.488,15.488,0,1,1-15.488-15.488,15.488,15.488,0,0,1,15.488,15.488" transform="translate(-179.124 -83.937)" fill="#4d89f5"/>
            <path id="Trazado_913305" data-name="Trazado 913305" d="M316.23,97.919a36.8,36.8,0,0,0-24.361,9.19,6.048,6.048,0,0,0-.3,8.821h0a6.07,6.07,0,0,0,8.307.218,24.831,24.831,0,0,1,32.7,0,6.039,6.039,0,1,0,8.01-9.039,36.8,36.8,0,0,0-24.361-9.19" transform="translate(-164.72 -55.656)" fill="#4d89f5"/>
            <path id="Trazado_913306" data-name="Trazado 913306" d="M296.848,49.76a57.538,57.538,0,0,0-39.223,15.4,6.034,6.034,0,0,0-.148,8.686l0,.005a6.027,6.027,0,0,0,8.355.173,45.577,45.577,0,0,1,62.023,0,6.027,6.027,0,0,0,8.355-.173l.005-.005a6.034,6.034,0,0,0-.148-8.686,57.538,57.538,0,0,0-39.223-15.4" transform="translate(-145.338 -28.283)" fill="#4d89f5"/>
            <path id="Trazado_913307" data-name="Trazado 913307" d="M276.844,0a78.946,78.946,0,0,0-54.472,21.747,6.027,6.027,0,0,0-.087,8.627l0,0a6.022,6.022,0,0,0,8.395.136,67.032,67.032,0,0,1,92.323,0,6.022,6.022,0,0,0,8.395-.136l0,0a6.027,6.027,0,0,0-.087-8.627A78.946,78.946,0,0,0,276.844,0" transform="translate(-125.335)" fill="#4d89f5"/>
            <path id="Trazado_913308" data-name="Trazado 913308" d="M489.471,159.291a86.151,86.151,0,0,1-31.609,10.566s-.022,38.37,31.609,50.862c31.631-12.492,31.609-50.862,31.609-50.862a86.151,86.151,0,0,1-31.609-10.566" transform="translate(-260.242 -90.539)" fill="#e9a134"/>
            <path id="Trazado_913309" data-name="Trazado 913309" d="M496.846,222.954c-20.254-9.206-24.931-31.179-26.01-40.656a93.815,93.815,0,0,0,26.009-8.994,93.849,93.849,0,0,0,26.006,8.994,66.7,66.7,0,0,1-3.421,14.808c-4.459,12.39-12.051,21.075-22.583,25.849" transform="translate(-267.616 -98.503)" fill="#fff"/>
            <path id="Trazado_913310" data-name="Trazado 913310" d="M484.968,178.23s12.332,7.438,19.908,20.39c0,0,10.749-27.774,33.252-41.652l-8.893-9.028a104.225,104.225,0,0,0-25.467,38.806s-7.815-8.935-18.8-8.516" transform="translate(-275.648 -84.087)" fill="#5ebdc4"/>
            <rect id="Rectángulo_403566" data-name="Rectángulo 403566" width="32.068" height="22.04" transform="translate(98.805 101.15)" fill="none" stroke="#fff" stroke-miterlimit="10" stroke-width="1"/>
            <path id="Trazado_913311" data-name="Trazado 913311" d="M264.51,251.047l-9.825-6.711v13.422Z" transform="translate(-144.759 -138.877)"/>
            <rect id="Rectángulo_403567" data-name="Rectángulo 403567" width="22.25" height="22.25" transform="translate(175.37 114.533)" fill="#4d89f5"/>
            <path id="Trazado_913312" data-name="Trazado 913312" d="M417.554,279.544l-8.621,14.932h17.242Z" transform="translate(-232.431 -158.889)"/>
            <path id="Trazado_913313" data-name="Trazado 913313" d="M443.055,273.512a4.08,4.08,0,1,1-4.08-4.08,4.08,4.08,0,0,1,4.08,4.08" transform="translate(-247.188 -153.141)" fill="#fff"/>
            <path id="Trazado_913314" data-name="Trazado 913314" d="M21.426,104.906C2.593,107.385-6.9,131.193,6.585,142.433c10.222,8.521,29.577.176,24.771-3.754-5.762-4.712-17.48,29.813,13.453,26.841" transform="translate(-0.142 -59.627)" fill="none" stroke="#0f0e13" stroke-linejoin="round" stroke-width="0.5"/>
            <path id="Trazado_913315" data-name="Trazado 913315" d="M58.663,98.231l9.011-9.473L54.964,85.69,56.1,89.539l-4.862,1.434,1.429,4.843,4.861-1.434Z" transform="translate(-29.123 -48.705)"/>
            <path id="Trazado_913316" data-name="Trazado 913316" d="M217.22,204.975h-6.064a.89.89,0,0,1-.89-.89v-6.064a.889.889,0,0,1,.89-.889h6.064a.889.889,0,0,1,.89.889v6.064a.89.89,0,0,1-.89.89" transform="translate(-119.513 -112.047)" fill="#8f93f9"/>
            <path id="Trazado_913317" data-name="Trazado 913317" d="M242.138,204.975h-6.064a.89.89,0,0,1-.89-.89v-6.064a.889.889,0,0,1,.89-.889h6.064a.889.889,0,0,1,.89.889v6.064a.89.89,0,0,1-.89.89" transform="translate(-133.676 -112.047)" fill="#8f93f9"/>
            <path id="Rectángulo_403568" data-name="Rectángulo 403568" d="M2.061,0H5.782A2.061,2.061,0,0,1,7.843,2.061V5.782a2.06,2.06,0,0,1-2.06,2.06H2.061A2.061,2.061,0,0,1,0,5.781V2.061A2.061,2.061,0,0,1,2.061,0Z" transform="translate(112.264 85.086)" fill="none" stroke="#8f93f9" stroke-miterlimit="10" stroke-width="1"/>
            <path id="Trazado_913318" data-name="Trazado 913318" d="M291.973,204.975H285.91a.89.89,0,0,1-.89-.89v-6.064a.889.889,0,0,1,.89-.889h6.064a.889.889,0,0,1,.89.889v6.064a.89.89,0,0,1-.89.89" transform="translate(-162.001 -112.047)" fill="#8f93f9"/>
            <path id="Trazado_913319" data-name="Trazado 913319" d="M261.3,197.276a11.555,11.555,0,0,1,3.406,3.259,31.752,31.752,0,0,1,6.418-7.388l-1.92-1.484a21.559,21.559,0,0,0-4.5,7.13,7.109,7.109,0,0,0-3.406-1.516" transform="translate(-148.517 -108.938)" fill="#dd3d60"/>
            <line id="Línea_702" data-name="Línea 702" y2="1.726" transform="translate(151.51 98.735)" fill="none" stroke="#0f0e13" stroke-linecap="round" stroke-linejoin="round" stroke-width="1"/>
            <line id="Línea_703" data-name="Línea 703" y2="47.204" transform="translate(151.51 103.958)" fill="none" stroke="#0f0e13" stroke-linecap="round" stroke-linejoin="round" stroke-width="1" stroke-dasharray="8.101 8.101"/>
            <path id="Trazado_913320" data-name="Trazado 913320" d="M351.03,354.275V356h1.726" transform="translate(-199.52 -201.365)" fill="none" stroke="#0f0e13" stroke-linecap="round" stroke-linejoin="round" stroke-width="1"/>
            <line id="Línea_704" data-name="Línea 704" x2="68.96" transform="translate(156.773 154.637)" fill="none" stroke="#0f0e13" stroke-linecap="round" stroke-linejoin="round" stroke-width="1" stroke-dasharray="8.193 8.193"/>
            <path id="Trazado_913321" data-name="Trazado 913321" d="M527.092,356h1.726v-1.726" transform="translate(-299.591 -201.365)" fill="none" stroke="#0f0e13" stroke-linecap="round" stroke-linejoin="round" stroke-width="1"/>
            <line id="Línea_705" data-name="Línea 705" y1="12.885" transform="translate(229.228 136.345)" fill="none" stroke="#0f0e13" stroke-linecap="round" stroke-linejoin="round" stroke-width="1" stroke-dasharray="8.529 8.529"/>
            <line id="Línea_706" data-name="Línea 706" y1="1.726" transform="translate(229.228 132.778)" fill="none" stroke="#0f0e13" stroke-linecap="round" stroke-linejoin="round" stroke-width="1"/>
            <path id="Trazado_913322" data-name="Trazado 913322" d="M181.328,263.888s5.753-7.588.251-20.027c-1.374-3.1-4.707-6.722-9.234-10.218-.579,1.338-1.487,2.584-2.743,1.969-1.881-.918-1.9-3.333-1.62-5.071-7.87-5.137-17.965-9.577-27.573-11.095a48.994,48.994,0,0,1,7.286,11.392c3.143,6.563,2.891,21.534,12.961,22.119,19.191,2.881,17.853,24.836,26.117,27.737,0,0-2.789-11.162-5.445-16.806M164.7,250.07c-2.292-1.415-6.778-1.364-7.5-3.656s3.369-1.635,3.369-1.635c5.137.754,6.414,6.706,4.127,5.291" transform="translate(-79.806 -124.73)" fill="#5ebdc4"/>
            <path id="Trazado_913323" data-name="Trazado 913323" d="M218.965,269.34s2.585,4.614,1.352,11.886" transform="translate(-124.456 -153.089)" fill="none" stroke="#0f0e13" stroke-linecap="round" stroke-miterlimit="10" stroke-width="0.75"/>
            <path id="Trazado_913324" data-name="Trazado 913324" d="M198.754,309.342s2.759-50.249-41.47-78.066" transform="translate(-89.398 -131.454)" fill="none" stroke="#0f0e13" stroke-linecap="round" stroke-miterlimit="10" stroke-width="1"/>
            <path id="Trazado_913325" data-name="Trazado 913325" d="M187.318,296.672s10.038-1.748,14.641,3.013,6.591,19.541,6.591,19.541-7.2-16.809-21.232-22.555" transform="translate(-106.469 -168.446)"/>
            <path id="Trazado_913326" data-name="Trazado 913326" d="M297.507,306.771c.933-.052.962-.772.522-1.049a5.466,5.466,0,0,0-3.016-.315c-3.107-1.43-6.468-1.928-9.079.34.19-.279,8.276-11.886,16.476-3.623,0,0,2.019,2.845,1.5,9.829a37.224,37.224,0,0,0-6.4-5.182" transform="translate(-162.52 -170.038)"/>
            <path id="Trazado_913327" data-name="Trazado 913327" d="M272.2,294.877c-24.523-5.112-16.77,30.058-14.635,31.555,4.115-4.4,2.477-8.68,5.27-13.4,1.106-1.868,3.926-4.023,6.034-5.845-1.873-.253-3.841-.821-3.244-2.067.854-1.792,4.589-2.315,6.1-2.455,5.975-7.713,11.64-4.817,12.938-3.265-3.293-6.642-12.459-4.525-12.459-4.525m-9.741,5.622c-.593,1.339-3.152-.415-2.841-1.816.309-1.381,3.6.115,2.841,1.816" transform="translate(-144.775 -167.315)" fill="#5ebdc4"/>
            <path id="Trazado_913328" data-name="Trazado 913328" d="M259.908,345.708s-1.685-44.839,14.01-49.342" transform="translate(-147.698 -168.45)" fill="none" stroke="#0f0e13" stroke-linecap="round" stroke-miterlimit="10" stroke-width="1"/>
            <path id="Trazado_913329" data-name="Trazado 913329" d="M275.812,324.069s-2.379,1.506-8.877,15.346c0,0-.339-7.1,2.147-10.068,1.742-2.082,3.342-2.46,6.731-5.278" transform="translate(-151.713 -184.196)"/>
            <path id="Trazado_913330" data-name="Trazado 913330" d="M264.2,310.812s-.851,6.189,1.142,9.783" transform="translate(-150.067 -176.661)" fill="none" stroke="#0f0e13" stroke-linecap="round" stroke-miterlimit="10" stroke-width="0.75"/>
            <path id="Trazado_913331" data-name="Trazado 913331" d="M266.678,369.287s-5.694-16.971,12.437-19.945c0,0-3.577,9.482-11.544,15.527Z" transform="translate(-151.094 -198.561)" fill="#5ebdc4"/>
            <path id="Trazado_913332" data-name="Trazado 913332" d="M266.6,381.4s-.5-16.132,8.038-23.348" transform="translate(-151.531 -203.511)" fill="none" stroke="#0f0e13" stroke-linecap="round" stroke-miterlimit="10" stroke-width="1"/>
            <path id="Trazado_913333" data-name="Trazado 913333" d="M239.508,367.374s2.755,6.8,2.865,19.324c0,0-1.157-7.394-4.573-12.45" transform="translate(-135.162 -208.81)" fill="none" stroke="#0f0e13" stroke-linecap="round" stroke-miterlimit="10" stroke-width="1"/>
            <path id="Trazado_913334" data-name="Trazado 913334" d="M199.158,88.943c-.854.112-4.633,4.258-5.532,5.322a4.68,4.68,0,0,0,.263-1.417c-.151-1.205-1.276-1.34-1.736-.283-.93,1.688-1.711,2.779-1.711,3.9,0,2.132-.073,3.8-.073,3.8-1.163,3.328-3.061,7.278-4.531,10.6l-4.137-5.722-8.118,7.639s8.1,9.149,11.573,10.11c1.433.4,5.556.085,6.612-3.551,1.858-6.4,3.509-15.175,4.353-18.938a32.9,32.9,0,0,0,2.049-2.917,2.747,2.747,0,0,0-.147-1.778,2.362,2.362,0,0,0,.23-2.033l-1.806.723c1.23-1.4,3.023-3.452,3.383-3.875.692-.816.113-1.684-.672-1.581" transform="translate(-98.662 -50.549)" fill="#d97969"/>
            <path id="Trazado_913335" data-name="Trazado 913335" d="M238.042,62.559a6.455,6.455,0,1,1-6.455-6.455,6.455,6.455,0,0,1,6.455,6.455" transform="translate(-127.962 -31.889)" fill="#fff"/>
            <path id="Trazado_913336" data-name="Trazado 913336" d="M230.712,64.029a8.638,8.638,0,1,0-12.725,2.5l-7.383,12.7a1.106,1.106,0,1,0,1.912,1.111l7.383-12.7a8.636,8.636,0,0,0,10.813-3.614M220,65.272a6.459,6.459,0,1,1,8.83-2.338A6.461,6.461,0,0,1,220,65.272" transform="translate(-119.619 -29.022)"/>
            <path id="Trazado_913337" data-name="Trazado 913337" d="M227.048,53.9a20.257,20.257,0,0,1,6.245,6.4s3.372-8.712,10.43-13.066l-2.79-2.832a32.69,32.69,0,0,0-7.989,12.173,8.276,8.276,0,0,0-5.9-2.671" transform="translate(-129.051 -25.234)" fill="#dd3d60"/>
            <path id="Trazado_913338" data-name="Trazado 913338" d="M222.984,95.968c-.882.234-2.456.79-3.13,1.008-1.077.347-1.094,1.211-.663,1.647l-.333.106c-1.076.347-1.093,1.21-.663,1.646-.892.5-.726,1.641.2,1.629.516-.006,2.921,0,3.447-.066.826-.1,1.133-1.215.795-1.987a1.619,1.619,0,0,0,.8-1.872c1.282-.3.738-2.429-.459-2.111" transform="translate(-123.684 -54.528)" fill="#d97969"/>
            <line id="Línea_707" data-name="Línea 707" y1="0.398" x2="2.8" transform="translate(95.685 43.678)" fill="none" stroke="#000" stroke-linecap="round" stroke-linejoin="round" stroke-width="0.4"/>
            <line id="Línea_708" data-name="Línea 708" y1="0.313" x2="3.099" transform="translate(94.714 45.502)" fill="none" stroke="#000" stroke-linecap="round" stroke-linejoin="round" stroke-width="0.4"/>
            <path id="Trazado_913339" data-name="Trazado 913339" d="M220.638,108.92s1.4,0,2.118-.026,1.168-.366,1.26-.79" transform="translate(-125.407 -61.445)" fill="none" stroke="#000" stroke-linecap="round" stroke-linejoin="round" stroke-width="0.4"/>
            <path id="Trazado_913340" data-name="Trazado 913340" d="M183.827,121.983c-3.263,2.706-7.445,5.594-9.508,6.984l-3.6-4.981L174.5,109.82a11.533,11.533,0,0,1,2.9,3.069c1.321,1.813,3.384,4.813,6.427,9.094" transform="translate(-97.032 -62.42)" fill="#dd3d60"/>
            <path id="Trazado_913341" data-name="Trazado 913341" d="M93.394,319.237s2.792,1.811,8.953,1.335c0,0,5.8-16.451,6.8-21.642a116.7,116.7,0,0,0,1.427-12.789s2.632-7.989,3.144-9.864c-4.375-.579-10.85-1.062-14.464-1.488-.309,1.712-5.864,44.448-5.864,44.448" transform="translate(-53.084 -156.186)" fill="#d97969"/>
            <path id="Trazado_913342" data-name="Trazado 913342" d="M151.12,274.883l.4,10.313a59.746,59.746,0,0,0-1.8,11.311c-.219,4.043.406,20.926.406,20.926s3.5.813,9.983.031c0,0,2.361-24.593,3.134-32.041.1-.937,1.013-13.166,1.108-14.176-2.991.215-9.243,3.553-13.224,3.637" transform="translate(-85.068 -154.172)" fill="#d97969"/>
            <path id="Trazado_913343" data-name="Trazado 913343" d="M150.473,371.09l.189,9.6a21.133,21.133,0,0,0,9.157.641l1.056-10.559" transform="translate(-85.527 -210.739)" fill="#dd3d60"/>
            <path id="Trazado_913344" data-name="Trazado 913344" d="M92.5,369.385,90.985,379.9s4.775,1.1,8.419-.286l3.072-9.632" transform="translate(-51.714 -209.953)" fill="#dd3d60"/>
            <path id="Trazado_913345" data-name="Trazado 913345" d="M140.181,212.442a43.578,43.578,0,0,0-1.807-13.459l-26.721-.586c-1.149,1.208-3.139,6.318-3.719,9.734-1.52,8.95-3.664,21.254-5.069,29.258,3.256,1.2,11.742,1.85,15.91,1.171.978-4.918,2.886-14.216,4.5-22.564l.579-.083-1.446,22.946c7.232,1.064,13.734.368,15.91-.754.662-7.062,1.813-22.738,1.86-25.663" transform="translate(-58.467 -112.765)" fill="#181e4c"/>
            <path id="Trazado_913346" data-name="Trazado 913346" d="M105.808,283.18a68.4,68.4,0,0,0,14.267,1.031" transform="translate(-60.14 -160.955)" fill="none" stroke="#fff" stroke-linecap="round" stroke-miterlimit="10" stroke-width="0.5"/>
            <path id="Trazado_913347" data-name="Trazado 913347" d="M150.114,285.31a60.021,60.021,0,0,0,14.686-.229" transform="translate(-85.322 -162.036)" fill="none" stroke="#fff" stroke-linecap="round" stroke-miterlimit="10" stroke-width="0.5"/>
            <path id="Trazado_913348" data-name="Trazado 913348" d="M70.174,387.566c1.966-1.3,6.884-.316,6.884-.316s.669-2.294.909-3.156c.152-.038,5.131.748,5.441.851a8.934,8.934,0,0,1,.458,2.111c2.039-.606,2.929-.9,2.929-.9a18.131,18.131,0,0,1,1.644,9.194H67.86s-.385-5.993,2.314-7.784" transform="translate(-38.56 -218.312)" fill="#4d89f5"/>
            <path id="Trazado_913349" data-name="Trazado 913349" d="M144.121,144.036a1.759,1.759,0,0,1-.915,1.723s-8.4,2.913-25.117.288c-1.181-.185-2.252-1.178-1.55-3.326a24.654,24.654,0,0,0,1.03-9.653,10.642,10.642,0,0,0-.486-2.772c-.767-2.167-1.893-5.206-2.835-8.358-1.147-3.806-2.019-7.774-1.674-10.56.269-2.168.192-4.39,2.3-5.246,3.69-1.5,8.418-2.894,8.418-2.894l8.569-.077s8.651.991,10.165,3.566c2.512,4.27,1.65,12.233.937,29.974-.114,2.825,1.213,5.707,1.161,7.334" transform="translate(-63.942 -58.635)" fill="#dd3d60"/>
            <path id="Trazado_913350" data-name="Trazado 913350" d="M124.551,106.579s6.4,3.312,5.3,20.775c-.325,5.148-2.208,21.337-2.208,21.337l2.842.184s1.867-15.186,2.149-21.335c.824-17.924-5.887-21.715-5.887-21.715q-1.079.355-2.192.755" transform="translate(-70.793 -60.149)" fill="#181e4c"/>
            <path id="Trazado_913351" data-name="Trazado 913351" d="M163.911,104.209s5.058,2.96,4.838,22.412c-.059,5.158-.68,21.335-.68,21.335h2.808s.028-15.181.186-21.335c.482-18.735-4.771-21.869-4.771-21.869Z" transform="translate(-93.164 -59.231)" fill="#181e4c"/>
            <path id="Trazado_913352" data-name="Trazado 913352" d="M122.585,136.365l-.128,15.576h-2.582a10.638,10.638,0,0,0-.486-2.772c-.767-2.167-1.892-5.206-2.835-8.358Z" transform="translate(-66.247 -77.508)"/>
            <path id="Trazado_913353" data-name="Trazado 913353" d="M162.822,59.078a14.914,14.914,0,0,1-1.355,6.031c-.813,1.68-1.124-1.259-1.124-1.259l-.4-2.6" transform="translate(-90.91 -33.579)"/>
            <path id="Trazado_913354" data-name="Trazado 913354" d="M137.493,90.793s1.4,3.621,6.716,3.106c4.625-.448,1.859-3.18,1.859-3.18s-.242-.73-.535-1.7c-.286-.946-.623-2.112-.834-3.027l-1.85-1.516-3.923-3.212s.507,6.981-1.432,9.526" transform="translate(-78.149 -46.191)" fill="#d97969"/>
            <path id="Trazado_913355" data-name="Trazado 913355" d="M144.341,88.744a9.28,9.28,0,0,0,5.084,4.508c-.286-.946-.622-2.112-.834-3.027l-1.85-1.516Z" transform="translate(-82.041 -50.421)"/>
            <path id="Trazado_913356" data-name="Trazado 913356" d="M146.681,59.655s4.36,10.546-.883,12.389a7.683,7.683,0,0,1-7.2-1.669,10.461,10.461,0,0,1-2.557-3.15c-1.06-1.947-2.784-5.6-2.422-8.155.516-3.642,10.89-7.408,13.063.587" transform="translate(-75.919 -31.216)" fill="#d97969"/>
            <path id="Trazado_913357" data-name="Trazado 913357" d="M130.25,65.688c0-.816.117-2,.091-3.349-1.313-1.191-2.118-3.361-.682-4.136a1.866,1.866,0,0,1,2.49.911,2.29,2.29,0,0,0,1.317-2.05c2.024.281,7.252,1.439,7.9-4.862,2.777-1.53,2.465-4.94.694-4.685-3.256.469-8.036.038-13.084-.523-2.6-.289-3.393,4.185-3.554,5.042-1.318.287-4.234,2.206-2.87,4.463,3.265,3.819,7.694,9.189,7.694,9.189" transform="translate(-69.457 -26.703)"/>
            <path id="Trazado_913358" data-name="Trazado 913358" d="M123.354,56.744a3.845,3.845,0,0,1,3.161-.268s-.8-.145-1.17-1.976" transform="translate(-70.113 -30.977)" fill="none" stroke="#000" stroke-linecap="round" stroke-miterlimit="10" stroke-width="0.5"/>
            <path id="Trazado_913359" data-name="Trazado 913359" d="M146.111,158.16H160.59a1.9,1.9,0,0,0,1.787-1.256l7.669-21.3a.935.935,0,0,0-.879-1.251H154.688a1.9,1.9,0,0,0-1.786,1.256l-7.669,21.3a.935.935,0,0,0,.879,1.251" transform="translate(-82.516 -76.365)"/>
            <path id="Trazado_913360" data-name="Trazado 913360" d="M148.857,158.16h14.479a1.9,1.9,0,0,0,1.786-1.256l7.669-21.3a.935.935,0,0,0-.879-1.251H157.434a1.9,1.9,0,0,0-1.786,1.256l-7.669,21.3a.935.935,0,0,0,.879,1.251" transform="translate(-84.077 -76.365)" fill="#492f89"/>
            <path id="Trazado_913361" data-name="Trazado 913361" d="M132.336,149.452c.083-.807-.919-1.374-1.841-1.291-.264.024-1.619.226-2.4.371.878-.574,1.932-1,2.373-1.322.472-.35-.344-1.705-1.529-1.24-.826.325-2.686,1.25-2.686,1.25l-2.278.2a3.641,3.641,0,0,0,.985-2.331.782.782,0,0,0-1.442-.41c-1,1.295-2.016,1.856-2.892,3.155a2.894,2.894,0,0,1-.6.44c-2.361.509-7.3,1.066-11.2,1.5.889-4.653,2.128-11.364,2.128-11.364l-9.379-3.358s-2.678,17.074-2.46,19.941c.126,1.665,1.726,3.91,5.085,3.345,3.113-.524,8.675-2.089,16.737-4.39a21.941,21.941,0,0,0,4.339-.183s2.031-.524,2.818-.733,1.936-.238,1.936-.893a.91.91,0,0,0-.032-.238c.763-.151,1.7-.242,1.7-.9a1.009,1.009,0,0,0-.657-.953c.6-.119,1.26-.2,1.3-.6" transform="translate(-56.325 -76.761)" fill="#d97969"/>
            <path id="Trazado_913362" data-name="Trazado 913362" d="M159.194,167.351l1.681-.338a6.111,6.111,0,0,0,1.184-.7" transform="translate(-90.483 -94.528)" fill="none" stroke="#000" stroke-linecap="round" stroke-linejoin="round" stroke-width="0.4"/>
            <path id="Trazado_913363" data-name="Trazado 913363" d="M165.161,169.8s-4.215.7-5.551.976" transform="translate(-90.72 -96.515)" fill="none" stroke="#000" stroke-linecap="round" stroke-linejoin="round" stroke-width="0.4"/>
            <path id="Trazado_913364" data-name="Trazado 913364" d="M164.651,173.946s-2.953.575-4.193.854" transform="translate(-91.202 -98.868)" fill="none" stroke="#000" stroke-linecap="round" stroke-linejoin="round" stroke-width="0.4"/>
            <line id="Línea_709" data-name="Línea 709" x1="6.65" y2="0.754" transform="translate(49.574 72.587)" fill="none" stroke="#000" stroke-linecap="round" stroke-linejoin="round" stroke-width="0.4"/>
            <path id="Trazado_913365" data-name="Trazado 913365" d="M113.645,115.193v.082l-.233,4.411c-.4,2.711-.941,6.293-1.6,10.251a97.786,97.786,0,0,1-12.21-1.5c.747-4.273,1.929-12.508,3.336-15.594.388-.842,2.4-1.878,4.6-2.8,1.373.121,6.1.842,6.1,5.149" transform="translate(-56.614 -62.547)" fill="#dd3d60"/>
            <path id="Trazado_913366" data-name="Trazado 913366" d="M112.333,146.729c-.164,1.032-.337,2.1-.518,3.2a97.792,97.792,0,0,1-12.21-1.5c.16-.919.341-2.02.535-3.211a120.209,120.209,0,0,0,12.193,1.515" transform="translate(-56.614 -82.537)" fill="#fff"/>
            <path id="Trazado_913367" data-name="Trazado 913367" d="M168.709,395.972H144.841s-.4-5.382,2.559-9.219l4.372.95s1.455-2.02,2.115-2.184,3.794-.328,3.794-.328l.574,2.262.483,1.269,1.86.588a8.769,8.769,0,0,1,5.166-.589c2.866,1.131,2.944,7.252,2.944,7.252" transform="translate(-82.315 -218.936)" fill="#4d89f5"/>
            <path id="Trazado_913368" data-name="Trazado 913368" d="M141.157,75.009s.85-.215,1.121,1.031c.181.828-.207,1.4-.736,1.408" transform="translate(-80.231 -42.626)" fill="none" stroke="#000" stroke-linecap="round" stroke-miterlimit="10" stroke-width="0.5"/>
            <path id="Trazado_913369" data-name="Trazado 913369" d="M141.629,76.851a.858.858,0,0,1,.942.89" transform="translate(-80.5 -43.68)" fill="none" stroke="#000" stroke-linecap="round" stroke-miterlimit="10" stroke-width="0.5"/>
            <path id="Trazado_913370" data-name="Trazado 913370" d="M132.465,121l3.54-.817.544,1.975-3.529.868Z" transform="translate(-75.291 -68.31)" fill="#fff"/>
            <path id="Trazado_913371" data-name="Trazado 913371" d="M169.32,116.02l3.54-.817.544,1.975-3.529.868Z" transform="translate(-96.239 -65.48)" fill="#fff"/>
            <path id="Trazado_913372" data-name="Trazado 913372" d="M147.921,222.324l2.887-.27,1.979-11.191" transform="translate(-84.076 -119.852)" fill="none" stroke="#fff" stroke-linecap="round" stroke-linejoin="round" stroke-width="0.5"/>
            <path id="Trazado_913373" data-name="Trazado 913373" d="M116.321,216.431a7.773,7.773,0,0,0,5.494-2.451c2.377-2.883,2.546-7.614,2.546-7.614l-.892-.1s-.435,4.884-2.563,7.054a7.323,7.323,0,0,1-4.36,1.983Z" transform="translate(-66.115 -117.238)" fill="#fff"/>
            <path id="Trazado_913374" data-name="Trazado 913374" d="M178.075,206.587l-.955.1s.72,5.166,4.585,6.089l-.09-1.061s-2.714-1.019-3.54-5.124" transform="translate(-100.672 -117.421)" fill="#fff"/>
            <rect id="Rectángulo_403569" data-name="Rectángulo 403569" width="5.093" height="5.093" transform="translate(189.583 51.053)" fill="#fff"/>
            <rect id="Rectángulo_403570" data-name="Rectángulo 403570" width="5.093" height="5.093" transform="translate(198.427 51.053)" fill="#fff"/>
            <rect id="Rectángulo_403571" data-name="Rectángulo 403571" width="5.093" height="5.093" transform="translate(207.27 51.053)" fill="#fff"/>
            <rect id="Rectángulo_403572" data-name="Rectángulo 403572" width="5.093" height="5.093" transform="translate(216.114 51.053)" fill="#fff"/>
            <rect id="Rectángulo_403573" data-name="Rectángulo 403573" width="5.093" height="5.093" transform="translate(224.957 51.053)" fill="#fff"/>
            <rect id="Rectángulo_403574" data-name="Rectángulo 403574" width="5.093" height="5.093" transform="translate(189.583 59.483)" fill="#fff"/>
            <rect id="Rectángulo_403575" data-name="Rectángulo 403575" width="5.093" height="5.093" transform="translate(198.427 59.483)" fill="#fff"/>
            <rect id="Rectángulo_403576" data-name="Rectángulo 403576" width="5.093" height="5.093" transform="translate(207.27 59.483)" fill="#fff"/>
            <rect id="Rectángulo_403577" data-name="Rectángulo 403577" width="5.093" height="5.093" transform="translate(216.114 59.483)" fill="#fff"/>
            <rect id="Rectángulo_403578" data-name="Rectángulo 403578" width="5.093" height="5.093" transform="translate(224.957 59.483)" fill="#fff"/>
            <path id="Trazado_913375" data-name="Trazado 913375" d="M484.183,378.381H436.988a2.562,2.562,0,1,1,0-5.124h47.195a2.562,2.562,0,0,1,0,5.124" transform="translate(-246.921 -212.154)" fill="#4d89f5"/>
            <path id="Trazado_913376" data-name="Trazado 913376" d="M588.677,316.732H571.213a1.627,1.627,0,1,1,0-3.254h17.464a1.627,1.627,0,1,1,0,3.254Z" transform="translate(-323.744 -178.176)" fill="none" stroke="#0f0e13" stroke-linejoin="round" stroke-width="0.5"/>
            <path id="Trazado_913377" data-name="Trazado 913377" d="M49.607,149.1H32.143a1.627,1.627,0,1,1,0-3.254H49.607a1.627,1.627,0,1,1,0,3.254Z" transform="translate(-17.345 -82.895)" fill="none" stroke="#0f0e13" stroke-linejoin="round" stroke-width="0.5"/>
            <path id="Trazado_913378" data-name="Trazado 913378" d="M256.2,151.636H236.017a.909.909,0,0,1,0-1.818H256.2a.909.909,0,0,1,0,1.818" transform="translate(-133.632 -85.154)" fill="#fff"/>
            <path id="Trazado_913379" data-name="Trazado 913379" d="M268.864,159.537H258.3a.909.909,0,0,1,0-1.818h10.559a.909.909,0,0,1,0,1.818" transform="translate(-146.3 -89.645)" fill="#fff"/>
            <path id="Trazado_913380" data-name="Trazado 913380" d="M500.613,29.581H475.432a1.627,1.627,0,1,1,0-3.254h25.181a1.627,1.627,0,0,1,0,3.254Z" transform="translate(-269.303 -14.964)" fill="none" stroke="#0f0e13" stroke-linejoin="round" stroke-width="0.5"/>
            <path id="Trazado_913381" data-name="Trazado 913381" d="M548.917,376.688a1.9,1.9,0,1,1-1.9-1.9,1.9,1.9,0,0,1,1.9,1.9" transform="translate(-309.833 -213.022)" fill="#0f0e13"/>
            <g id="Grupo_1108304" data-name="Grupo 1108304" transform="translate(260.039 152.579)" opacity="0.3">
              <g id="Grupo_1108303" data-name="Grupo 1108303">
                <g id="Grupo_1108302" data-name="Grupo 1108302" clip-path="url(#clip-path-5)">
                  <circle id="Elipse_11599" data-name="Elipse 11599" cx="3.776" cy="3.776" r="3.776" transform="translate(0.216 0.216)" fill="none" stroke="#8f93f9" stroke-miterlimit="10" stroke-width="1"/>
                </g>
              </g>
            </g>
            <path id="Trazado_913382" data-name="Trazado 913382" d="M576.44,110.34a2.752,2.752,0,1,1-2.752-2.752A2.752,2.752,0,0,1,576.44,110.34Z" transform="translate(-324.511 -61.151)" fill="none" stroke="#8f93f9" stroke-miterlimit="10" stroke-width="1"/>
            <path id="Trazado_913383" data-name="Trazado 913383" d="M95.468,211.091a4.255,4.255,0,1,1-4.255-4.255,4.255,4.255,0,0,1,4.255,4.255" transform="translate(-49.426 -117.562)" fill="#8f93f9"/>
            <g id="Grupo_1108307" data-name="Grupo 1108307" transform="translate(235.905 10.386)" opacity="0.3">
              <g id="Grupo_1108306" data-name="Grupo 1108306">
                <g id="Grupo_1108305" data-name="Grupo 1108305" clip-path="url(#clip-path-6)">
                  <path id="Trazado_913384" data-name="Trazado 913384" d="M551.77,26.668a2.6,2.6,0,1,1-2.6-2.6,2.6,2.6,0,0,1,2.6,2.6" transform="translate(-546.562 -24.064)" fill="#8f93f9"/>
                </g>
              </g>
            </g>
            <g id="Grupo_1108310" data-name="Grupo 1108310" transform="translate(242.536 54.174)" opacity="0.3">
              <g id="Grupo_1108309" data-name="Grupo 1108309">
                <g id="Grupo_1108308" data-name="Grupo 1108308" clip-path="url(#clip-path-7)">
                  <path id="Trazado_913385" data-name="Trazado 913385" d="M564.442,126.771a1.257,1.257,0,1,1-1.257-1.257,1.257,1.257,0,0,1,1.257,1.257" transform="translate(-561.927 -125.514)" fill="#8f93f9"/>
                </g>
              </g>
            </g>
            <path id="Trazado_913386" data-name="Trazado 913386" d="M410.87,231.353a4.8,4.8,0,1,1-4.8-4.8A4.8,4.8,0,0,1,410.87,231.353Z" transform="translate(-228.077 -128.77)" fill="none" stroke="#8f93f9" stroke-miterlimit="10" stroke-width="1"/>
            <path id="Trazado_913387" data-name="Trazado 913387" d="M566.968,293.576a2.48,2.48,0,1,1-2.48-2.48,2.48,2.48,0,0,1,2.48,2.48" transform="translate(-319.436 -165.454)" fill="#8f93f9"/>
            <path id="Trazado_913388" data-name="Trazado 913388" d="M80.288,287.68a1.62,1.62,0,1,1-1.619-1.62,1.62,1.62,0,0,1,1.619,1.62" transform="translate(-43.793 -162.592)" fill="#8f93f9"/>
            <path id="Trazado_913389" data-name="Trazado 913389" d="M595.53,269.367a1.62,1.62,0,1,1-1.619-1.619,1.619,1.619,0,0,1,1.619,1.619" transform="translate(-336.649 -152.184)" fill="#8f93f9"/>
            <path id="Trazado_913390" data-name="Trazado 913390" d="M232.323,7.028A1.62,1.62,0,1,1,230.7,5.409a1.62,1.62,0,0,1,1.619,1.619" transform="translate(-130.208 -3.074)" fill="#8f93f9"/>
            <g id="Grupo_1108313" data-name="Grupo 1108313" transform="translate(35.315 128.122)" opacity="0.3">
              <g id="Grupo_1108312" data-name="Grupo 1108312">
                <g id="Grupo_1108311" data-name="Grupo 1108311" clip-path="url(#clip-path-8)">
                  <path id="Trazado_913391" data-name="Trazado 913391" d="M88.292,300.079a3.236,3.236,0,1,1-3.237-3.237,3.236,3.236,0,0,1,3.237,3.237" transform="translate(-81.819 -296.842)" fill="#8f93f9"/>
                </g>
              </g>
            </g>
            <g id="Grupo_1108316" data-name="Grupo 1108316" transform="translate(77.93 3.107)" opacity="0.3">
              <g id="Grupo_1108315" data-name="Grupo 1108315">
                <g id="Grupo_1108314" data-name="Grupo 1108314" clip-path="url(#clip-path-9)">
                  <path id="Trazado_913392" data-name="Trazado 913392" d="M194.921,14.381A7.183,7.183,0,1,1,187.737,7.2a7.183,7.183,0,0,1,7.183,7.183" transform="translate(-180.554 -7.198)" fill="#8f93f9"/>
                </g>
              </g>
            </g>
            <g id="Grupo_1108319" data-name="Grupo 1108319" transform="translate(24.48 74.669)" opacity="0.3">
              <g id="Grupo_1108318" data-name="Grupo 1108318">
                <g id="Grupo_1108317" data-name="Grupo 1108317" clip-path="url(#clip-path-10)">
                  <path id="Trazado_913393" data-name="Trazado 913393" d="M58.734,174.007A1.008,1.008,0,1,1,57.726,173a1.008,1.008,0,0,1,1.008,1.008" transform="translate(-56.718 -172.999)" fill="#8f93f9"/>
                </g>
              </g>
            </g>
            <rect id="Rectángulo_403585" data-name="Rectángulo 403585" width="252.908" height="1.707" transform="translate(19.093 177.035)"/>
            <line id="Línea_710" data-name="Línea 710" x2="13.478" transform="translate(103.807 181.945)" fill="none" stroke="#0f0e13" stroke-linejoin="round" stroke-width="1"/>
            <line id="Línea_711" data-name="Línea 711" x1="56.699" transform="translate(29.281 181.945)" fill="none" stroke="#0f0e13" stroke-linejoin="round" stroke-width="1"/>
          </g>
        </g>
      </g>
    </g>
  </g>
</svg>
