<svg xmlns="http://www.w3.org/2000/svg" xmlns:xlink="http://www.w3.org/1999/xlink" width="85" height="85" viewBox="0 0 85 85">
  <defs>
    <clipPath id="clip-path">
      <rect id="Rectángulo_403312" data-name="Rectángulo 403312" width="85" height="85" transform="translate(854.051 4116)" fill="#fff" stroke="#707070" stroke-width="1"/>
    </clipPath>
  </defs>
  <g id="Enmascarar_grupo_1098710" data-name="Enmascarar grupo 1098710" transform="translate(-854.051 -4116)" clip-path="url(#clip-path)">
    <g id="administracion_1_" data-name="administracion (1)" transform="translate(852.68 4114.629)">
      <path id="Trazado_912666" data-name="Trazado 912666" d="M20.565,68.548H39.758v5.484H20.565Z" fill="#aab2bd"/>
      <path id="Trazado_912667" data-name="Trazado 912667" d="M45.406,75.239a4.1,4.1,0,0,1,1.206,2.906,1.375,1.375,0,0,1-1.371,1.371H15.081a1.375,1.375,0,0,1-1.371-1.371,4.107,4.107,0,0,1,4.113-4.113H42.5A4.1,4.1,0,0,1,45.406,75.239Z" fill="#aab2bd"/>
      <path id="Trazado_912668" data-name="Trazado 912668" d="M52.1,68.548H8.226a5.484,5.484,0,0,1-5.484-5.484V35.645a5.484,5.484,0,0,1,5.484-5.484H52.1a5.484,5.484,0,0,1,5.484,5.484V63.065A5.484,5.484,0,0,1,52.1,68.548Z" fill="#ccd1d9"/>
      <circle id="Elipse_11527" data-name="Elipse 11527" cx="10.968" cy="10.968" r="10.968" transform="translate(2.742 2.742)" fill="#ffeaa7"/>
      <path id="Trazado_912669" data-name="Trazado 912669" d="M13.71,16.452a8.216,8.216,0,0,1,7.623,5.141,10.96,10.96,0,0,1-15.245,0A8.216,8.216,0,0,1,13.71,16.452Z" fill="#ff826e"/>
      <path id="Trazado_912670" data-name="Trazado 912670" d="M50.726,63.065H9.6a1.371,1.371,0,0,1-1.371-1.371V37.016A1.371,1.371,0,0,1,9.6,35.645H50.726A1.371,1.371,0,0,1,52.1,37.016V61.694A1.371,1.371,0,0,1,50.726,63.065Z" fill="#69d6f4"/>
      <circle id="Elipse_11528" data-name="Elipse 11528" cx="10.968" cy="10.968" r="10.968" transform="translate(24.677 24.677)" fill="#ffeaa7"/>
      <path id="Trazado_912671" data-name="Trazado 912671" d="M35.645,38.387a8.216,8.216,0,0,1,7.623,5.141,10.96,10.96,0,0,1-15.245,0A8.216,8.216,0,0,1,35.645,38.387Z" fill="#ff826e"/>
      <circle id="Elipse_11529" data-name="Elipse 11529" cx="4.113" cy="4.113" r="4.113" transform="translate(9.597 8.226)" fill="#f0d0b4"/>
      <circle id="Elipse_11530" data-name="Elipse 11530" cx="4.113" cy="4.113" r="4.113" transform="translate(31.532 30.161)" fill="#f0d0b4"/>
      <path id="Trazado_912672" data-name="Trazado 912672" d="M80.887,15.081v5.484l-3.29.9a12.934,12.934,0,0,1-.877,2.111l1.686,2.961-3.88,3.88-2.961-1.686a26.366,26.366,0,0,1-3.016,1.426V24.677a2.283,2.283,0,0,0-.055-.535v-.014a6.855,6.855,0,1,0-5.374,0,2.4,2.4,0,0,0-.055.548v5.484a26.367,26.367,0,0,1-3.016-1.426l-2.961,1.686-.26-.26-3.619-3.619,1.686-2.961a12.934,12.934,0,0,1-.877-2.111l-3.29-.9V15.081l3.29-.9a12.934,12.934,0,0,1,.877-2.111L53.207,9.1l3.88-3.88L60.048,6.91a12.934,12.934,0,0,1,2.111-.877l.9-3.29h5.484l.9,3.29a12.934,12.934,0,0,1,2.111.877l2.961-1.686,3.88,3.88-1.686,2.961a12.934,12.934,0,0,1,.877,2.111Z" fill="#ffc729"/>
      <path id="Trazado_912673" data-name="Trazado 912673" d="M83.629,74.032V85H56.21V74.032H83.629Z" fill="#b4dd7f"/>
      <path id="Trazado_912674" data-name="Trazado 912674" d="M79.516,43.871a2.75,2.75,0,0,1,2.742-2.742A2.762,2.762,0,0,1,85,43.871V61.694a8.215,8.215,0,0,1-1.645,4.935l-2.468,3.29v4.113H58.952V69.919L56.9,65.683l-2.6-5.36a8.161,8.161,0,0,1-1.028-3.057l-.946-7.6a5.077,5.077,0,0,0-.219-1.028,6.776,6.776,0,0,0-.973-2.18l-1.412-2.125a2.051,2.051,0,0,1-.356-1.165,2.1,2.1,0,0,1,2.111-2.1c.219,0,.425.014.631.027A7.458,7.458,0,0,1,57.4,44.008a7.3,7.3,0,0,1,1.371,3.057l1.549,7.719h1.371l.8-1.59a5.427,5.427,0,0,0,.576-2.454V24.677a2.4,2.4,0,0,1,.055-.548,2.761,2.761,0,0,1,2.687-2.194,2.681,2.681,0,0,1,1.933.809,2.653,2.653,0,0,1,.754,1.385v.014a2.284,2.284,0,0,1,.055.535V41.129a2.75,2.75,0,0,1,2.742-2.742,2.762,2.762,0,0,1,2.742,2.742,2.75,2.75,0,0,1,2.742-2.742,2.762,2.762,0,0,1,2.742,2.742Z" fill="#f0d0b4"/>
      <path id="Trazado_912675" data-name="Trazado 912675" d="M84.452,67.452a9.649,9.649,0,0,0,1.919-5.758V43.871a4.1,4.1,0,0,0-5.643-3.811,4.077,4.077,0,0,0-6.7-1.974,3.986,3.986,0,0,0-4.113-.817V31.084c.5-.223,1.052-.5,1.616-.79l3.227,1.84,5.356-5.358-1.852-3.242c.143-.31.274-.624.392-.939l3.6-.984V14.035l-3.6-.984c-.118-.315-.25-.629-.392-.939l1.852-3.242L74.763,3.511,71.518,5.362c-.311-.143-.624-.274-.938-.392l-.984-3.6H62.018l-.984,3.6c-.314.118-.628.248-.939.392L56.851,3.511,51.495,8.869l1.852,3.242c-.143.31-.274.624-.392.939l-3.6.984v2.417H41.129a4.118,4.118,0,0,0-4.113,4.113v2.823a11.659,11.659,0,0,0-2.742,0V16.452a4.118,4.118,0,0,0-4.113-4.113H25.968a12.339,12.339,0,1,0,0,2.742h4.194a1.372,1.372,0,0,1,1.371,1.371v7.575a12.39,12.39,0,0,0-6.139,4.764H8.226a6.863,6.863,0,0,0-6.855,6.855V63.065a6.863,6.863,0,0,0,6.855,6.855H19.194v2.742H17.823a5.489,5.489,0,0,0-5.484,5.484,2.745,2.745,0,0,0,2.742,2.742H45.242a2.745,2.745,0,0,0,2.742-2.742A5.489,5.489,0,0,0,42.5,72.661H41.129V69.919H52.1A6.788,6.788,0,0,0,56.589,68.2l.991,2.037v2.427H54.839v13.71H85V72.661H82.258V70.376ZM7.784,21.245a6.841,6.841,0,0,1,11.851,0,9.545,9.545,0,0,1-11.851,0Zm3.183-8.906a2.742,2.742,0,1,1,2.742,2.742A2.745,2.745,0,0,1,10.968,12.339Zm10.6,6.869a9.518,9.518,0,0,0-3.788-3.223,5.484,5.484,0,1,0-8.133,0,9.518,9.518,0,0,0-3.788,3.223,9.6,9.6,0,1,1,15.709,0Zm27,25.9,1.411,2.117a6.1,6.1,0,0,1,.747,1.6V61.694H9.6V37.016H23.387a12.334,12.334,0,0,0,24.516,0h2.823v2.765A3.472,3.472,0,0,0,48.568,45.1ZM32.9,34.274a2.742,2.742,0,1,1,2.742,2.742A2.745,2.745,0,0,1,32.9,34.274Zm2.742,5.484A6.818,6.818,0,0,1,41.57,43.18a9.545,9.545,0,0,1-11.851,0,6.818,6.818,0,0,1,5.925-3.422Zm15.081-5.484H47.9a12.251,12.251,0,0,0-.639-2.742H52.1a4.118,4.118,0,0,1,4.113,4.113v5.48a8.783,8.783,0,0,0-2.742-1.163V37.016a2.745,2.745,0,0,0-2.742-2.742Zm6.936-2.6,2.417-1.378c.55.285,1.112.562,1.616.79V50.745a4.112,4.112,0,0,1-.42,1.808l-1.15-5.75a8.793,8.793,0,0,0-1.175-2.932h0V35.645a6.8,6.8,0,0,0-1.29-3.973Zm4.875-9.462a5.483,5.483,0,1,1,6.54,0,4.071,4.071,0,0,0-6.54,0ZM52.1,16.127,55.1,15.3l.221-.72a10.978,10.978,0,0,1,.784-1.877l.354-.666L54.913,9.328l2.4-2.4,2.713,1.548.666-.352a10.794,10.794,0,0,1,1.878-.783l.718-.222.825-3.007H67.5l.824,3.007.718.222a10.976,10.976,0,0,1,1.88.784l.665.351L74.3,6.929l2.4,2.4-1.549,2.713.354.666a10.869,10.869,0,0,1,.784,1.877l.221.72,3.007.823v3.392l-3.007.823-.221.72a10.978,10.978,0,0,1-.784,1.877l-.354.666L76.7,26.317l-2.4,2.4-2.713-1.548-.665.351c-.369.195-.7.367-1,.521V24.934a8.226,8.226,0,1,0-8.226,0V28.04c-.292-.148-.618-.317-1-.52l-.666-.352-2.713,1.548-2.4-2.4L56.465,23.6l-.354-.666a10.869,10.869,0,0,1-.784-1.877l-.221-.72L52.1,19.518ZM39.758,20.565a1.372,1.372,0,0,1,1.371-1.371h8.226v2.417l3.6.984c.118.315.25.629.392.939l-1.852,3.242,2.231,2.231A6.779,6.779,0,0,0,52.1,28.79H45.9a12.39,12.39,0,0,0-6.139-4.764Zm-4.113,5.484A9.584,9.584,0,0,1,43.5,41.143a9.518,9.518,0,0,0-3.788-3.223,5.484,5.484,0,1,0-8.133,0,9.518,9.518,0,0,0-3.788,3.223,9.584,9.584,0,0,1,7.854-15.094Zm9.6,52.1-30.161,0v0A2.745,2.745,0,0,1,17.823,75.4H42.5A2.745,2.745,0,0,1,45.242,78.145Zm-6.855-5.484H21.935V69.919H38.387ZM52.1,67.177H8.226a4.118,4.118,0,0,1-4.113-4.113V35.645a4.118,4.118,0,0,1,4.113-4.113h15.8a12.177,12.177,0,0,0-.639,2.742H9.6a2.745,2.745,0,0,0-2.742,2.742V61.694A2.745,2.745,0,0,0,9.6,64.435H50.726a2.742,2.742,0,0,0,2.735-2.672l1.84,3.784a4.06,4.06,0,0,1-3.2,1.63ZM82.258,83.629H57.581V75.4H82.258ZM60.323,72.661V69.6l-4.848-9.963a6.77,6.77,0,0,1-.85-2.549l-.949-7.587a8.855,8.855,0,0,0-1.415-3.8l-1.412-2.118a.733.733,0,0,1,.61-1.141,6.113,6.113,0,0,1,5.976,4.9L59.2,56.152h3.342l1.171-2.343a6.892,6.892,0,0,0,.724-3.064V24.677a1.371,1.371,0,1,1,2.742,0V46.613h2.742V41.129a1.371,1.371,0,1,1,2.742,0v5.484H75.4V41.129a1.371,1.371,0,1,1,2.742,0v5.484h2.742V43.871a1.371,1.371,0,1,1,2.742,0V61.694a6.893,6.893,0,0,1-1.371,4.113l-2.742,3.656v3.2Z"/>
      <path id="Trazado_912676" data-name="Trazado 912676" d="M42.5,50.726H39.758V56.21H37.016V53.468H34.274V56.21H31.532V50.726H28.79V56.21H26.048V45.242H23.306V56.21H20.565V42.5H17.823V56.21H15.081V39.758H12.339V58.952h32.9V56.21H42.5Z"/>
    </g>
  </g>
</svg>
