<svg xmlns="http://www.w3.org/2000/svg" xmlns:xlink="http://www.w3.org/1999/xlink" width="85" height="85" viewBox="0 0 85 85">
  <defs>
    <clipPath id="clip-path">
      <rect id="Rectángulo_403313" data-name="Rectángulo 403313" width="85" height="85" transform="translate(854.051 4512)" fill="#fff" stroke="#707070" stroke-width="1"/>
    </clipPath>
  </defs>
  <g id="Enmascarar_grupo_1098711" data-name="Enmascarar grupo 1098711" transform="translate(-854.051 -4512)" clip-path="url(#clip-path)">
    <g id="sistema-de-gestion-de-contenidos" transform="translate(852.68 4510.629)">
      <g id="Grupo_1101684" data-name="Grupo 1101684">
        <g id="Grupo_1101675" data-name="Grupo 1101675">
          <path id="Trazado_912677" data-name="Trazado 912677" d="M69.919,71.29v5.484l-2.029.74c-.055.123-.1.26-.151.384l.9,1.947-3.88,3.88-1.947-.9c-.123.055-.26.1-.384.151L61.694,85H56.21l-.74-2.029c-.123-.055-.26-.1-.384-.151l-1.947.9-3.88-3.88.9-1.947c-.055-.123-.1-.26-.151-.384l-2.029-.74V71.29l2.029-.74c.055-.123.1-.26.151-.384l-.9-1.947,3.88-3.88,1.947.9c.123-.055.26-.1.384-.151l.74-2.029h5.484l.74,2.029c.123.055.26.1.384.151l1.947-.9,1.618,1.618,2.262,2.262-.9,1.947c.055.123.1.26.151.384Zm-5.484,2.742a5.484,5.484,0,1,0-5.484,5.484A5.482,5.482,0,0,0,64.435,74.032Z" fill="#fcd770"/>
        </g>
        <g id="Grupo_1101676" data-name="Grupo 1101676">
          <path id="Trazado_912678" data-name="Trazado 912678" d="M28.955,28.626a4.1,4.1,0,0,1,1.206,2.906c0,4.113-5.484,4.113-5.484,4.113h-9.6a2.741,2.741,0,0,0-2.742,2.742v2.742a2.725,2.725,0,0,0-1.933.8A2.689,2.689,0,0,0,9.6,43.871V44.1a2.75,2.75,0,0,0,.809,1.947l1.933,1.933v5.484L8.048,50.4A12.668,12.668,0,0,1,15.41,27.419H26.048a4.1,4.1,0,0,1,2.906,1.206Z" fill="#656d78"/>
        </g>
        <g id="Grupo_1101677" data-name="Grupo 1101677">
          <path id="Trazado_912679" data-name="Trazado 912679" d="M53.344,13.778a9.581,9.581,0,0,1-18.947.014,8.428,8.428,0,0,1-.123-1.453,9.6,9.6,0,0,1,19.194,0A8.269,8.269,0,0,1,53.344,13.778Z" fill="#e6e9ed"/>
        </g>
        <g id="Grupo_1101678" data-name="Grupo 1101678">
          <path id="Trazado_912680" data-name="Trazado 912680" d="M47.984,12.339l-6.855,4.113V8.226Z" fill="#ff826e"/>
        </g>
        <g id="Grupo_1101679" data-name="Grupo 1101679">
          <path id="Trazado_912681" data-name="Trazado 912681" d="M76.774,49.355v5.484H57.581V32.9H76.774Z" fill="#ffeaa7"/>
        </g>
        <g id="Grupo_1101680" data-name="Grupo 1101680">
          <path id="Trazado_912682" data-name="Trazado 912682" d="M85,24.677V49.355H76.774V32.9H63.065V24.677H85Z" fill="#f0d0b4"/>
        </g>
        <g id="Grupo_1101681" data-name="Grupo 1101681">
          <path id="Trazado_912683" data-name="Trazado 912683" d="M46.613,57.581v2.742a2.75,2.75,0,0,1-2.742,2.742H37.016l-5.484-5.484,4.319-4.319A3.978,3.978,0,0,1,42.226,54.3l.274.535h1.371A2.75,2.75,0,0,1,46.613,57.581Z" fill="#f0d0b4"/>
        </g>
        <g id="Grupo_1101682" data-name="Grupo 1101682">
          <path id="Trazado_912684" data-name="Trazado 912684" d="M20.565,54.839v4.113l-2.742,2.742L12.339,56.21V47.984l-1.933-1.933A2.75,2.75,0,0,1,9.6,44.1v-.233a2.689,2.689,0,0,1,.809-1.947,2.725,2.725,0,0,1,1.933-.8V38.387a2.741,2.741,0,0,1,2.742-2.742h9.6A22.891,22.891,0,0,1,28.79,47.984l-4.113,1.371V52.1l-2.742,2.742Z" fill="#f0d0b4"/>
        </g>
        <g id="Grupo_1101683" data-name="Grupo 1101683">
          <path id="Trazado_912685" data-name="Trazado 912685" d="M31.532,57.581l-7.074,7.074-3.894,3.894-.055.055a8.789,8.789,0,0,0-.96-.617L9.2,62.228a4.444,4.444,0,0,0-2.084-.535H7.047a4.282,4.282,0,0,0-2.392.724,4.262,4.262,0,0,1,2.421-.749h.069a4.419,4.419,0,0,1,2.074.532l10.306,5.732a8.712,8.712,0,0,1,.956.614l.055-.055,3.876-3.876-.1-1.16a5.533,5.533,0,0,0-1.283-2.019l-2.5-2.5-2.73,2.73L12.344,56.21,8.728,57.248A8.189,8.189,0,0,0,2.79,65.124v.4A4.188,4.188,0,0,0,2.742,66V85H24.677V75.623l-.178-.247a9.348,9.348,0,0,0,1.206-1l2.906-2.906,8.4-8.4Z" fill="#4fc1e9"/>
        </g>
      </g>
      <g id="Grupo_1101685" data-name="Grupo 1101685">
        <circle id="Elipse_11531" data-name="Elipse 11531" cx="1.371" cy="1.371" r="1.371" transform="translate(20.565 41.128)"/>
        <path id="Trazado_912686" data-name="Trazado 912686" d="M39.758,5.8V18.873l10.891-6.534ZM42.5,10.648l2.819,1.69L42.5,14.029Z"/>
        <path id="Trazado_912687" data-name="Trazado 912687" d="M86.371,23.306H69.533a32.716,32.716,0,0,0-14.721-10.45c.01-.173.027-.343.027-.518a10.968,10.968,0,1,0-21.935,0c0,.177.018.35.026.525A32.917,32.917,0,0,0,16.238,26.048h-.825a14.041,14.041,0,0,0-8.16,25.468l3.715,2.654v1l-2.636.754a9.634,9.634,0,0,0-6.96,9.227V86.371H26.048V75.912c.215-.181.426-.367.628-.569l2.2-2.2a32.933,32.933,0,0,0,15,3.629c.913,0,1.829-.052,2.742-.127v1.089l1.811.657-.816,1.745,5.237,5.237,1.745-.817.658,1.814h7.4l.658-1.811,1.745.817,5.237-5.237-.816-1.745,1.812-.659V70.329l-1.811-.657.816-1.745-2.008-2.008a32.572,32.572,0,0,0,6.083-9.708h3.776V50.727h8.226ZM43.871,4.113a8.226,8.226,0,1,1-8.226,8.226A8.234,8.234,0,0,1,43.871,4.113ZM8.845,49.286a11.3,11.3,0,0,1,6.568-20.5H26.048a2.745,2.745,0,0,1,2.742,2.742c0,2.684-3.948,2.739-4.117,2.741H15.081a4.118,4.118,0,0,0-4.113,4.113v1.605A4.121,4.121,0,0,0,8.226,43.87v.236a4.083,4.083,0,0,0,1.205,2.908l1.537,1.537V50.8Zm12.522,4.18H16.452v2.742h2.742v2.174l-1.371,1.372L13.71,55.641V47.415l-2.34-2.34a1.384,1.384,0,0,1-.4-.969V43.87A1.372,1.372,0,0,1,12.339,42.5H13.71V38.386a1.372,1.372,0,0,1,1.371-1.371h8.874A21.775,21.775,0,0,1,27.389,47l-4.083,1.361v3.163Zm-12.284,5.1,2.856-.817,5.883,5.883,2.742-2.742L22.1,62.428a4.138,4.138,0,0,1,.909,1.378l.03.328-2.715,2.715-.1-.058L9.867,61.038a5.739,5.739,0,0,0-2.823-.716,5.621,5.621,0,0,0-1,.1,6.8,6.8,0,0,1,3.044-1.858ZM23.306,83.629H4.113V70.838c.073.044.14.1.214.136l11,6a9.533,9.533,0,0,0,7.975.54ZM24.736,73.4a6.78,6.78,0,0,1-4.826,2,6.851,6.851,0,0,1-3.267-.832l-11-6a2.947,2.947,0,0,1,2.9-5.134l10.356,5.753a6.9,6.9,0,0,1,1.52,1.146l1.926,1.928,1.94-1.939L22.5,68.547l9.028-9.028,3.545,3.545ZM37.584,61.694l-4.113-4.113,3.348-3.347a2.632,2.632,0,0,1,1.848-.766A2.6,2.6,0,0,1,41,54.913l.648,1.3h2.218a1.372,1.372,0,0,1,1.371,1.371v2.742a1.372,1.372,0,0,1-1.371,1.371Zm30.965,14.12-1.128.411-.613.291-.58,1.4L67,79.559l-2.518,2.52-1.642-.768-1.482.61-.622,1.708H57.169l-.41-1.128-.28-.607-1.413-.583-1.642.768-2.518-2.52.77-1.647-.613-1.477-1.708-.622V72.251l1.128-.411.613-.291.58-1.4-.77-1.647,2.518-2.52,1.645.768,1.481-.61.621-1.708h3.563l.41,1.128.278.606,1.413.584,1.645-.768L67,68.506l-.77,1.647.613,1.477,1.707.622Zm-2.226-11.86-1.264-1.264-1.745.817-.658-1.812h-7.4L54.592,63.5l-1.745-.817L47.61,67.925l.816,1.745-1.812.659v3.555A30.5,30.5,0,0,1,30.921,71.1l6.663-6.662h6.287a4.118,4.118,0,0,0,4.113-4.113V57.581a4.118,4.118,0,0,0-4.113-4.113H43.34A5.355,5.355,0,0,0,34.879,52.3l-3.347,3.347L25.171,62a6.83,6.83,0,0,0-1.13-1.514l-2.106-2.107V56.208H22.5l3.545-3.545V50.342l4.113-1.371v-.988A23.451,23.451,0,0,0,26.968,36.7a8.652,8.652,0,0,0,.932-.285,5.055,5.055,0,0,0,3.632-4.881,5.489,5.489,0,0,0-5.484-5.484h-6.5A30.149,30.149,0,0,1,33.4,15.608,10.968,10.968,0,0,0,54.344,15.6a29.923,29.923,0,0,1,11.571,7.709H61.694v8.226H56.21V56.21H71.36a29.836,29.836,0,0,1-5.038,7.743ZM75.4,53.468H58.952V34.274H75.4Zm8.226-5.484H78.145V31.532H64.435V26.048H83.629Z"/>
        <path id="Trazado_912688" data-name="Trazado 912688" d="M61.694,37.016H72.661v2.742H61.694Z"/>
        <path id="Trazado_912689" data-name="Trazado 912689" d="M61.694,42.5H72.661v2.742H61.694Z"/>
        <path id="Trazado_912690" data-name="Trazado 912690" d="M61.694,47.984H72.661v2.742H61.694Z"/>
        <path id="Trazado_912691" data-name="Trazado 912691" d="M58.952,67.177a6.855,6.855,0,1,0,6.855,6.855A6.863,6.863,0,0,0,58.952,67.177Zm0,10.968a4.113,4.113,0,1,1,4.113-4.113A4.118,4.118,0,0,1,58.952,78.145Z"/>
      </g>
    </g>
  </g>
</svg>
