<svg xmlns="http://www.w3.org/2000/svg" xmlns:xlink="http://www.w3.org/1999/xlink" width="108.914" height="108.914" viewBox="0 0 108.914 108.914">
  <defs>
    <filter id="Trazado_874925" x="0" y="0" width="108.914" height="108.914" filterUnits="userSpaceOnUse">
      <feOffset dy="3" input="SourceAlpha"/>
      <feGaussianBlur stdDeviation="3" result="blur"/>
      <feFlood flood-opacity="0.161"/>
      <feComposite operator="in" in2="blur"/>
      <feComposite in="SourceGraphic"/>
    </filter>
    <clipPath id="clip-path">
      <rect id="Rectángulo_403599" data-name="Rectángulo 403599" width="55.646" height="45.363" fill="none"/>
    </clipPath>
  </defs>
  <g id="Grupo_1108353" data-name="Grupo 1108353" transform="translate(3226 10662)">
    <g id="Grupo_1107929" data-name="Grupo 1107929" transform="translate(-3217 -10656)">
      <g transform="matrix(1, 0, 0, 1, -9, -6)" filter="url(#Trazado_874925)">
        <g id="Trazado_874925-2" data-name="Trazado 874925" transform="translate(9 6)" fill="#b0dcad" opacity="0.859">
          <path d="M 45.45676803588867 89.41407012939453 C 39.52198028564453 89.41407012939453 33.76551818847656 88.25206756591797 28.34726715087891 85.96034240722656 C 23.11311721801758 83.74648284912109 18.41204261779785 80.57682800292969 14.37464332580566 76.5394287109375 C 10.33724308013916 72.50202941894531 7.167593002319336 67.80095672607422 4.953730583190918 62.56679534912109 C 2.662005424499512 57.14855575561523 1.500005483627319 51.39208221435547 1.500005483627319 45.45729446411133 C 1.500005483627319 39.52198028564453 2.662005424499512 33.76551818847656 4.953730583190918 28.34726905822754 C 7.167593002319336 23.11310577392578 10.33724308013916 18.41203117370605 14.37464332580566 14.37464332580566 C 18.41204261779785 10.33724403381348 23.11311721801758 7.167593955993652 28.34726715087891 4.953731060028076 C 33.76551818847656 2.662006139755249 39.52198028564453 1.500006198883057 45.45676803588867 1.500006198883057 C 51.39155578613281 1.500006198883057 57.14802932739258 2.662006139755249 62.56626892089844 4.953731060028076 C 67.80043029785156 7.167593955993652 72.50150299072266 10.33724403381348 76.53890228271484 14.37464332580566 C 80.57630920410156 18.41203117370605 83.74595642089844 23.11310577392578 85.95981597900391 28.34726905822754 C 88.25154113769531 33.76551818847656 89.41354370117188 39.52198028564453 89.41354370117188 45.45676803588867 C 89.41354370117188 51.39208221435547 88.25154113769531 57.14855575561523 85.95981597900391 62.56679534912109 C 83.74595642089844 67.80095672607422 80.57630920410156 72.50202941894531 76.53890228271484 76.5394287109375 C 72.50150299072266 80.57682800292969 67.80043029785156 83.74648284912109 62.56626892089844 85.96034240722656 C 57.14802932739258 88.25206756591797 51.39155578613281 89.41407012939453 45.45676803588867 89.41407012939453 Z" stroke="none"/>
          <path d="M 45.45676803588867 3 C 39.72381210327148 3 34.1639404296875 4.12213134765625 28.93159484863281 6.335227966308594 C 23.87622833251953 8.473472595214844 19.33542633056641 11.53517150878906 15.43529510498047 15.435302734375 C 11.53517150878906 19.33543395996094 8.473464965820312 23.87622833251953 6.335227966308594 28.93160247802734 C 4.122123718261719 34.16394424438477 3 39.72381591796875 3 45.4572868347168 C 3 51.19024658203125 4.122123718261719 56.75011825561523 6.335227966308594 61.98246002197266 C 8.473464965820312 67.03782653808594 11.53517150878906 71.57862854003906 15.43529510498047 75.478759765625 C 19.33542633056641 79.37889099121094 23.87622833251953 82.44058990478516 28.93159484863281 84.57883453369141 C 34.1639404296875 86.79193115234375 39.72381210327148 87.9140625 45.45676803588867 87.9140625 C 51.18972396850586 87.9140625 56.74959564208984 86.79193115234375 61.98194122314453 84.57883453369141 C 67.03730773925781 82.44058990478516 71.57810974121094 79.37889099121094 75.47824096679688 75.478759765625 C 79.37837219238281 71.57862854003906 82.44007110595703 67.03782653808594 84.57830810546875 61.98246002197266 C 86.79141235351562 56.75011825561523 87.91353607177734 51.19024658203125 87.91353607177734 45.4567756652832 C 87.91353607177734 39.72381591796875 86.79141235351562 34.16394424438477 84.57830810546875 28.93160247802734 C 82.44007110595703 23.87622833251953 79.37837219238281 19.33543395996094 75.47824096679688 15.435302734375 C 71.57810974121094 11.53517150878906 67.03730773925781 8.473472595214844 61.98194122314453 6.335227966308594 C 56.74959564208984 4.12213134765625 51.18972396850586 3 45.45676803588867 3 M 45.45676803588867 0 C 70.56185150146484 0 90.91353607177734 20.35169219970703 90.91353607177734 45.4567756652832 L 90.91353607177734 45.4572868347168 C 90.91353607177734 70.5623779296875 70.56185150146484 90.9140625 45.45676803588867 90.9140625 C 20.3516845703125 90.9140625 0 70.5623779296875 0 45.4572868347168 L 0 45.4567756652832 C 0 20.35169219970703 20.3516845703125 0 45.45676803588867 0 Z" stroke="none" fill="#fff"/>
        </g>
      </g>
      <g id="Trazado_874923" data-name="Trazado 874923" transform="translate(0 0)" fill="none">
        <path d="M45.457,0A45.457,45.457,0,0,1,90.914,45.457h0A45.457,45.457,0,0,1,0,45.457H0A45.457,45.457,0,0,1,45.457,0Z" stroke="none"/>
        <path d="M 45.45676803588867 3 C 39.72381210327148 3 34.1639404296875 4.12213134765625 28.93159484863281 6.335227966308594 C 23.87622833251953 8.473472595214844 19.33542633056641 11.53517150878906 15.43529510498047 15.435302734375 C 11.53517150878906 19.33543395996094 8.473464965820312 23.87622833251953 6.335227966308594 28.93160247802734 C 4.122123718261719 34.16394424438477 3 39.72381591796875 3 45.4572868347168 C 3 51.19024658203125 4.122123718261719 56.75011825561523 6.335227966308594 61.98246002197266 C 8.473464965820312 67.03782653808594 11.53517150878906 71.57862854003906 15.43529510498047 75.478759765625 C 19.33542633056641 79.37889099121094 23.87622833251953 82.44058990478516 28.93159484863281 84.57883453369141 C 34.1639404296875 86.79193115234375 39.72381210327148 87.9140625 45.45676803588867 87.9140625 C 51.18972396850586 87.9140625 56.74959564208984 86.79193115234375 61.98194122314453 84.57883453369141 C 67.03730773925781 82.44058990478516 71.57810974121094 79.37889099121094 75.47824096679688 75.478759765625 C 79.37837219238281 71.57862854003906 82.44007110595703 67.03782653808594 84.57830810546875 61.98246002197266 C 86.79141235351562 56.75011825561523 87.91353607177734 51.19024658203125 87.91353607177734 45.4567756652832 C 87.91353607177734 39.72381591796875 86.79141235351562 34.16394424438477 84.57830810546875 28.93160247802734 C 82.44007110595703 23.87622833251953 79.37837219238281 19.33543395996094 75.47824096679688 15.435302734375 C 71.57810974121094 11.53517150878906 67.03730773925781 8.473472595214844 61.98194122314453 6.335227966308594 C 56.74959564208984 4.12213134765625 51.18972396850586 3 45.45676803588867 3 M 45.45676803588867 0 C 70.56185150146484 0 90.91353607177734 20.35169219970703 90.91353607177734 45.4567756652832 L 90.91353607177734 45.4572868347168 C 90.91353607177734 70.5623779296875 70.56185150146484 90.9140625 45.45676803588867 90.9140625 C 20.3516845703125 90.9140625 0 70.5623779296875 0 45.4572868347168 L 0 45.4567756652832 C 0 20.35169219970703 20.3516845703125 0 45.45676803588867 0 Z" stroke="none" fill="#fff"/>
      </g>
    </g>
    <g id="Grupo_1108352" data-name="Grupo 1108352" transform="translate(-3199 -10634)">
      <g id="Grupo_1108351" data-name="Grupo 1108351" clip-path="url(#clip-path)">
        <path id="Trazado_913451" data-name="Trazado 913451" d="M9.065,24.773A1.178,1.178,0,1,1,7.887,23.6a1.176,1.176,0,0,1,1.178,1.178m3.824,0A1.176,1.176,0,1,1,11.711,23.6a1.176,1.176,0,0,1,1.178,1.178M9.011,20.286a4.556,4.556,0,0,0,0,8.975v-.714a.789.789,0,0,1,1.578,0v.714a4.556,4.556,0,0,0,0-8.975V21a.789.789,0,0,1-1.578,0ZM9.8,30.907a6.133,6.133,0,1,1,6.134-6.134A6.136,6.136,0,0,1,9.8,30.907M36.834,13.9l-.157.168a3.613,3.613,0,0,0-1.021,1.65,1.284,1.284,0,0,0,1.093,1.715,1.27,1.27,0,0,0,1.189-.578,1.226,1.226,0,0,0-.141-1.278,10.438,10.438,0,0,1-.963-1.677m1.007-1.778A9,9,0,0,0,39.113,14.7a2.765,2.765,0,0,1,.206,2.908,2.8,2.8,0,0,1-2.592,1.395,2.827,2.827,0,0,1-2.6-3.654,4.693,4.693,0,0,1,1.126-2.057,17.958,17.958,0,0,0,1.2-1.37.787.787,0,0,1,1.39.195m1.641,1.558A8.662,8.662,0,0,0,37.315,6.26a8.887,8.887,0,0,1-1.905,4.184.79.79,0,0,1-1.294-.119,1.738,1.738,0,0,0-.56-.64,17.39,17.39,0,0,0-1.63,4.448,5.567,5.567,0,0,0,1.2,4.936,4.431,4.431,0,0,0,3.2,1.225,5.242,5.242,0,0,0,4.793-2.333,5.762,5.762,0,0,0,.589-4.213,6.623,6.623,0,0,1-1.05.712.788.788,0,0,1-1.175-.784M18.011,17.434,24.4,11.553,21.393,9.372a.787.787,0,0,1-.271-.927l1.95-4.972L16.7,8.981l2.843,2.27a.789.789,0,0,1,.255.871s-.992,2.906-1.784,5.313m33.514.493a.788.788,0,1,1,1.115,1.115l-1.583,1.583a.788.788,0,0,1-1.115-1.115ZM42.932,28.149H48.76a.9.9,0,0,0,.873-1.126c-.439-1.7-1.025-3.978-1.283-4.977a.334.334,0,0,0-.195-.226h0a6.546,6.546,0,0,0-4.619,0,.345.345,0,0,0-.195.226l-1.281,4.977a.9.9,0,0,0,.873,1.126m-18.024,0h5.827a.9.9,0,0,0,.873-1.126c-.439-1.7-1.023-3.978-1.281-4.977a.337.337,0,0,0-.2-.226,6.552,6.552,0,0,0-4.621,0,.336.336,0,0,0-.193.226l-1.281,4.977a.9.9,0,0,0,.871,1.126m18.4-11.6a6.648,6.648,0,0,1-.844,2.232A6.473,6.473,0,0,1,37.622,21.8V32.658a.33.33,0,0,0,.1.24.326.326,0,0,0,.237.1H45.3c-.051-.551-.078-1.1-.078-1.628V29.727H42.932a2.478,2.478,0,0,1-2.4-3.1l1.281-4.977a1.919,1.919,0,0,1,1.126-1.294l.007,0a8.112,8.112,0,0,1,5.8,0l.007,0a1.917,1.917,0,0,1,1.124,1.292c.26,1,.844,3.273,1.283,4.979a2.478,2.478,0,0,1-2.4,3.1H46.8v1.641c0,.528.031,1.077.085,1.628h6.846a.326.326,0,0,0,.237-.1.33.33,0,0,0,.1-.24V22.688l-1.986.531a.788.788,0,1,1-.407-1.522l2.163-.58a.812.812,0,0,1,.231-.027v-4.2a.344.344,0,0,0-.338-.338H49.476a.786.786,0,0,1-.027.177l-.58,2.163a.788.788,0,1,1-1.522-.407l.517-1.932Zm-22.009,0-1.7,1.567V32.658a.337.337,0,0,0,.1.24.331.331,0,0,0,.24.1h7.175c-.051-.551-.078-1.1-.078-1.628V29.727H24.908a2.481,2.481,0,0,1-2.4-3.1l1.283-4.977a1.916,1.916,0,0,1,1.124-1.294s0,0,.009,0a8.112,8.112,0,0,1,5.8,0l.007,0a1.917,1.917,0,0,1,1.124,1.292c.257,1,.842,3.273,1.281,4.979a2.478,2.478,0,0,1-2.4,3.1H28.611v1.641A16.189,16.189,0,0,0,28.7,33h7.012a.336.336,0,0,0,.338-.338V21.865a5.888,5.888,0,0,1-4.039-1.684,6.3,6.3,0,0,1-1.7-3.631Zm-4.659,0H1.914a.344.344,0,0,0-.338.338v15.77a.33.33,0,0,0,.1.24.326.326,0,0,0,.237.1h15.77a.336.336,0,0,0,.338-.338V19.568L16.9,20.6a.789.789,0,0,1-1.294-.795c.17-.6.584-1.883,1.037-3.257m2.169,17.657a1.92,1.92,0,0,1-1.128.367H1.914A1.915,1.915,0,0,1,0,32.658V16.888a1.911,1.911,0,0,1,1.914-1.914H17.169c.387-1.162.748-2.228.954-2.836L14.97,9.621a.79.79,0,0,1-.022-1.213L24.458.191a.789.789,0,0,1,1.249.887L22.813,8.454l3.3,2.387a.788.788,0,0,1,.072,1.218l-3.166,2.915h7.231a9.59,9.59,0,0,1,.128-1.11c.4-2.3,1.238-3.445,2.033-5.532a.79.79,0,0,1,1.021-.454,4.286,4.286,0,0,1,1.357.746A9.956,9.956,0,0,0,36,4.564a.788.788,0,0,1,1.283-.495,9.916,9.916,0,0,1,3.884,7.995c.094-.1.195-.219.311-.351a.789.789,0,0,1,1.33.231,9.037,9.037,0,0,1,.627,3.031h10.3a1.915,1.915,0,0,1,1.914,1.914v15.77a1.919,1.919,0,0,1-1.914,1.916H47.11c.092.495.2.981.32,1.444A11.682,11.682,0,0,0,50.2,41.232a14.452,14.452,0,0,0,3.242,2.632.789.789,0,0,1-.683,1.422,15.277,15.277,0,0,1-3.674-2.939,13.344,13.344,0,0,1-3.183-5.928c-.154-.589-.289-1.211-.4-1.845H37.96a1.913,1.913,0,0,1-1.126-.367,1.908,1.908,0,0,1-1.126.367H28.92c.09.495.2.981.32,1.444a11.682,11.682,0,0,0,2.774,5.214,14.452,14.452,0,0,0,3.242,2.632.789.789,0,0,1-.683,1.422A15.277,15.277,0,0,1,30.9,42.347a13.344,13.344,0,0,1-3.183-5.928c-.154-.589-.289-1.211-.4-1.845H19.938a1.908,1.908,0,0,1-1.126-.367" transform="translate(0 0)" fill="#353535" fill-rule="evenodd"/>
      </g>
    </g>
  </g>
</svg>
