<svg xmlns="http://www.w3.org/2000/svg" xmlns:xlink="http://www.w3.org/1999/xlink" width="74" height="74" viewBox="0 0 74 74">
  <defs>
    <clipPath id="clip-path">
      <rect id="Rectángulo_403605" data-name="Rectángulo 403605" width="47.759" height="45.521" fill="#fbfbf9"/>
    </clipPath>
  </defs>
  <g id="Grupo_1108372" data-name="Grupo 1108372" transform="translate(-1020.396 -2064)">
    <circle id="Elipse_11622" data-name="Elipse 11622" cx="37" cy="37" r="37" transform="translate(1020.396 2064)" fill="#692cb7"/>
    <g id="Grupo_1108371" data-name="Grupo 1108371" transform="translate(1034.671 2076.238)">
      <g id="Grupo_1108370" data-name="Grupo 1108370" clip-path="url(#clip-path)">
        <path id="Trazado_913469" data-name="Trazado 913469" d="M12.953,63.525H2.608A2.612,2.612,0,0,1,0,60.914V25.337a2.613,2.613,0,0,1,2.608-2.612H6.063a.618.618,0,0,1,0,1.235H2.608a1.377,1.377,0,0,0-1.373,1.377V60.914A1.376,1.376,0,0,0,2.608,62.29H12.953a.618.618,0,1,1,0,1.235" transform="translate(0 -20.386)" fill="#fbfbf9"/>
        <path id="Trazado_913470" data-name="Trazado 913470" d="M263.155,35.025a.618.618,0,0,1-.618-.618v-9.07a1.378,1.378,0,0,0-1.375-1.377h-3.451a.618.618,0,0,1,0-1.235h3.451a2.614,2.614,0,0,1,2.61,2.612v9.07a.618.618,0,0,1-.617.618" transform="translate(-230.634 -20.386)" fill="#fbfbf9"/>
        <path id="Trazado_913471" data-name="Trazado 913471" d="M97.847,6.765H85.676a1.859,1.859,0,0,1-1.857-1.857V1.857A1.859,1.859,0,0,1,85.676,0H97.847A1.86,1.86,0,0,1,99.7,1.857V4.908a1.86,1.86,0,0,1-1.857,1.857M85.676,1.235a.623.623,0,0,0-.622.622V4.908a.623.623,0,0,0,.622.622H97.847a.623.623,0,0,0,.622-.622V1.857a.623.623,0,0,0-.622-.622Z" transform="translate(-75.192)" fill="#fbfbf9"/>
        <path id="Trazado_913472" data-name="Trazado 913472" d="M127.138,154.719H118.65a.618.618,0,0,1,0-1.235h8.488a.618.618,0,0,1,0,1.235" transform="translate(-105.884 -137.687)" fill="#fbfbf9"/>
        <path id="Trazado_913473" data-name="Trazado 913473" d="M127.138,222.8H118.65a.618.618,0,0,1,0-1.235h8.488a.618.618,0,0,1,0,1.235" transform="translate(-105.884 -198.761)" fill="#fbfbf9"/>
        <path id="Trazado_913474" data-name="Trazado 913474" d="M122.831,290.88H118.65a.618.618,0,0,1,0-1.235h4.182a.618.618,0,0,1,0,1.235" transform="translate(-105.884 -259.835)" fill="#fbfbf9"/>
        <path id="Trazado_913475" data-name="Trazado 913475" d="M41.717,146.543a.616.616,0,0,1-.486-.236l-1.56-1.984a.618.618,0,0,1,.971-.763l1.56,1.984a.618.618,0,0,1-.485,1" transform="translate(-35.47 -128.573)" fill="#fbfbf9"/>
        <path id="Trazado_913476" data-name="Trazado 913476" d="M55.311,120.919a.618.618,0,0,1-.523-.945l3.072-4.923a.617.617,0,1,1,1.048.654l-3.072,4.923a.617.617,0,0,1-.524.291" transform="translate(-49.065 -102.949)" fill="#fbfbf9"/>
        <path id="Trazado_913477" data-name="Trazado 913477" d="M41.717,214.624a.616.616,0,0,1-.486-.236l-1.56-1.984a.618.618,0,1,1,.971-.763l1.56,1.984a.618.618,0,0,1-.485,1" transform="translate(-35.47 -189.647)" fill="#fbfbf9"/>
        <path id="Trazado_913478" data-name="Trazado 913478" d="M55.311,189a.618.618,0,0,1-.523-.945l3.072-4.923a.617.617,0,1,1,1.048.654l-3.072,4.923a.617.617,0,0,1-.524.291" transform="translate(-49.065 -164.024)" fill="#fbfbf9"/>
        <path id="Trazado_913479" data-name="Trazado 913479" d="M41.717,282.7a.616.616,0,0,1-.486-.236l-1.56-1.984a.618.618,0,0,1,.971-.763l1.56,1.984a.618.618,0,0,1-.485,1" transform="translate(-35.47 -250.721)" fill="#fbfbf9"/>
        <path id="Trazado_913480" data-name="Trazado 913480" d="M55.311,257.081a.618.618,0,0,1-.523-.944l3.072-4.924a.617.617,0,1,1,1.048.654l-3.072,4.924a.617.617,0,0,1-.524.291" transform="translate(-49.065 -225.098)" fill="#fbfbf9"/>
        <path id="Trazado_913481" data-name="Trazado 913481" d="M195.866,204.039H173.918a4.164,4.164,0,0,1-3.606-6.246l10.974-19.008a4.164,4.164,0,0,1,7.212,0l10.974,19.008a4.164,4.164,0,0,1-3.606,6.246m-10.974-26.1a2.9,2.9,0,0,0-2.536,1.464l-10.974,19.008a2.929,2.929,0,0,0,2.536,4.393h21.948a2.929,2.929,0,0,0,2.536-4.393L187.428,179.4a2.9,2.9,0,0,0-2.536-1.464" transform="translate(-152.277 -158.518)" fill="#fbfbf9"/>
        <path id="Trazado_913482" data-name="Trazado 913482" d="M311.969,246.782a.618.618,0,0,1-.617-.618v-10.32a.618.618,0,1,1,1.235,0v10.32a.618.618,0,0,1-.618.618" transform="translate(-279.307 -211.017)" fill="#fbfbf9"/>
        <path id="Trazado_913483" data-name="Trazado 913483" d="M311.057,377.968a.618.618,0,0,1-.617-.617v-1.126a.618.618,0,1,1,1.235,0v1.126a.618.618,0,0,1-.618.617" transform="translate(-278.49 -336.95)" fill="#fbfbf9"/>
      </g>
    </g>
  </g>
</svg>
