<svg xmlns="http://www.w3.org/2000/svg" xmlns:xlink="http://www.w3.org/1999/xlink" width="295" height="265.006" viewBox="0 0 295 265.006">
  <defs>
    <clipPath id="clip-path">
      <rect id="Rectángulo_403557" data-name="Rectángulo 403557" width="242.523" height="229.519" fill="none"/>
    </clipPath>
    <clipPath id="clip-path-3">
      <path id="Trazado_913298" data-name="Trazado 913298" d="M203.783,53.429c-34.758,7.754-55.73,7.931-87.768,3.046s-99.283,5.5-98.833,63.016c.383,49.061,35.187,104.129,123.165,104.129s107.3-93.224,109.542-121.474c.153-1.928.233-3.856.237-5.772v-.3c-.047-22.836-10.841-43.941-35.246-43.942a50.961,50.961,0,0,0-11.1,1.3" transform="translate(-17.179 -52.127)" fill="none"/>
    </clipPath>
    <clipPath id="clip-path-4">
      <rect id="Rectángulo_403548" data-name="Rectángulo 403548" width="197.615" height="132.088" fill="none"/>
    </clipPath>
    <clipPath id="clip-path-5">
      <rect id="Rectángulo_403549" data-name="Rectángulo 403549" width="40.69" height="70.484" fill="none"/>
    </clipPath>
    <clipPath id="clip-path-6">
      <rect id="Rectángulo_403555" data-name="Rectángulo 403555" width="49.246" height="75.842" fill="none"/>
    </clipPath>
  </defs>
  <g id="Grupo_1108296" data-name="Grupo 1108296" transform="translate(-284.949 -3639.803)">
    <rect id="Rectángulo_402941" data-name="Rectángulo 402941" width="295" height="163" rx="10" transform="translate(284.949 3741.809)" fill="#d7eed6"/>
    <g id="Grupo_1108295" data-name="Grupo 1108295" transform="translate(311.734 3639.803)">
      <g id="Grupo_1108294" data-name="Grupo 1108294" clip-path="url(#clip-path)">
        <g id="Grupo_1108280" data-name="Grupo 1108280">
          <g id="Grupo_1108279" data-name="Grupo 1108279" clip-path="url(#clip-path)">
            <path id="Trazado_913247" data-name="Trazado 913247" d="M1.091,131.937C10.237,80.75,56.415,29.422,148.33,45.106s95.477,116.524,92.788,146.438-29.617,42-64.548,27.7-51.862-17.322-83.458-3.85S-9.632,191.948,1.091,131.937" transform="translate(0 -18.69)" fill="#e0ebff" fill-rule="evenodd"/>
            <path id="Trazado_913248" data-name="Trazado 913248" d="M17.181,119.491c.383,49.061,35.187,104.13,123.165,104.13s107.3-93.225,109.541-121.475S238.54,45.676,203.783,53.43s-55.73,7.931-87.768,3.045-99.282,5.5-98.833,63.016" transform="translate(-7.602 -23.068)" fill="#f7f7f7"/>
          </g>
        </g>
        <g id="Grupo_1108291" data-name="Grupo 1108291" transform="translate(9.577 29.059)">
          <g id="Grupo_1108290" data-name="Grupo 1108290" clip-path="url(#clip-path-3)">
            <g id="Grupo_1108283" data-name="Grupo 1108283" transform="translate(-6.794 68.372)" opacity="0.64">
              <g id="Grupo_1108282" data-name="Grupo 1108282">
                <g id="Grupo_1108281" data-name="Grupo 1108281" clip-path="url(#clip-path-4)">
                  <path id="Trazado_913249" data-name="Trazado 913249" d="M17.821,227.1V195.686h7.894v12.04H38.456V174.774H56v36.706H70.509V181.762h63.258v39.924H161.89V198.765h13.767v49.577H183.9V230.583H201.1s-3.4,22.424,0,25.827,0,33.183,0,33.183L80.221,306.862,4.993,271.926Z" transform="translate(-4.993 -174.774)" fill="#e2e2e2"/>
                </g>
              </g>
            </g>
            <path id="Trazado_913250" data-name="Trazado 913250" d="M166.434,99.943a13.248,13.248,0,1,1-13.248-13.248,13.248,13.248,0,0,1,13.248,13.248" transform="translate(-71.504 -67.424)" fill="#e2e2e2"/>
            <path id="Trazado_913251" data-name="Trazado 913251" d="M326.862,271.033c1.227,5.8-.282,16.4-.587,20.305s-.864,9.706-.864,9.706,13.165-3.347,14.839-4.574,13.723-3.124,13.723-3.124l13.276-13.053-8.925-30.569-16.847,2.343Z" transform="translate(-153.581 -139.57)" fill="#0f4fdf"/>
            <path id="Trazado_913252" data-name="Trazado 913252" d="M327.633,292.8c2.943-.294,4-4.41,6.177-2.1s-5.8,14.01-7.829,17.118c0,0-1.026,14.223,1.581,11.856S360,291.8,362.533,287.6a26.475,26.475,0,0,0,3.213-7.44s-15.338-5.748-19.251-5.241-12.685,1.691-12.685,1.691l-4.752,2.924-2.618,9.069Z" transform="translate(-153.746 -150.705)" fill="#0e3f96"/>
            <path id="Trazado_913253" data-name="Trazado 913253" d="M306.937,248.248c0-.135-.008-.269-.011-.4-.1-5.477,1.755-7.23,1.755-7.23l1.372,10.207Z" transform="translate(-145.399 -135.54)" fill="#f3b8a5"/>
            <path id="Trazado_913254" data-name="Trazado 913254" d="M308.951,250.656,306,251.921s1.01,18.865,5.367,26.8c2.681,4.884,4.228-6.049,4.339-6.5s-1.854-11.273-1.854-11.273Z" transform="translate(-144.991 -139.982)" fill="#0f4bb5"/>
            <path id="Trazado_913255" data-name="Trazado 913255" d="M309.376,222.4c-.446,10.041,4.076,31.225,4.076,31.225l12.629-18.283,5.943-9.149-5.006-7.706s-14.1,2.126-17.642,3.913" transform="translate(-146.472 -125.747)" fill="#bdbfc1"/>
            <path id="Trazado_913256" data-name="Trazado 913256" d="M314.106,220.162c-.447,10.041,4.076,31.225,4.076,31.225L330.811,233.1l5.943-9.149-5.006-7.706s-14.1,2.126-17.642,3.913" transform="translate(-148.565 -124.756)" fill="#dadada"/>
            <path id="Trazado_913257" data-name="Trazado 913257" d="M320.95,224.747l12.12-3.864.439,1.932-12.559,3.162Z" transform="translate(-151.607 -126.807)" fill="#bdbfc1"/>
            <path id="Trazado_913258" data-name="Trazado 913258" d="M322.834,234.569l12.12-3.864.439,1.932L322.834,235.8Z" transform="translate(-152.441 -131.153)" fill="#bdbfc1"/>
            <path id="Trazado_913259" data-name="Trazado 913259" d="M325.454,245.228l12.12-3.864.439,1.932-12.559,3.162Z" transform="translate(-153.6 -135.87)" fill="#bdbfc1"/>
            <path id="Trazado_913260" data-name="Trazado 913260" d="M342.961,198.98c.953,1.668.715,6.316.715,6.316h5.6V194.333Z" transform="translate(-161.348 -115.058)" fill="#f3b8a5"/>
            <path id="Trazado_913261" data-name="Trazado 913261" d="M330.542,172.374c-2.782,6.9-.824,18.337,0,19.059s7.932-.721,9.787-1.236,4.223-6.078,4.223-6.078l-2.781-8.654-5.048-4.945Z" transform="translate(-155.215 -104.52)" fill="#f3b8a5"/>
            <path id="Trazado_913262" data-name="Trazado 913262" d="M328.3,189.454c-.3,1.1-1.809,2.266-.444,3.229a1.125,1.125,0,0,0,1.868-.545Z" transform="translate(-154.416 -112.899)" fill="#f3b8a5"/>
            <path id="Trazado_913263" data-name="Trazado 913263" d="M336.245,212.3s-5.654-.114-7.864.947-1.448,4.073-1.448,4.073-3.387,1.785-5.923,8.7-2.313,12.83-3.541,16.958-3.012,11.157-3.012,11.157-2.12,3.793,0,7.252a5.611,5.611,0,0,0,6.553,2.678c1.257-.335,6.541-4.128,8.92-9.93s7.175-15.062,7.175-15.062l3.013-10.376Z" transform="translate(-148.317 -123.005)" fill="#0f4fdf"/>
            <path id="Trazado_913264" data-name="Trazado 913264" d="M356.373,237.095c-7.985,4.049-17.752,1.186-22.4-7.627s5.719-19.064,3.333-23.357-3.81-5.958.245-11.676,1.827-11.952,0-14.933c-1.368-2.229-1.971-6.24-2.762-8.412a2.637,2.637,0,0,0-.916-1.443c-1.381-.678-1.808,2.642-2.285,3.151s.119-3.98,0-5.172-5.712-.5-4.445-9.178c1.205-8.211,8.538-4.532,8.538-4.532,11.958-3.088,18.549,4.413,20.332,12.159a13.751,13.751,0,0,1,.32,2.292v.05c.377,6.861-3.835,13.17,3.02,16.484,7.627,3.7,11.676,12.153,13.822,16.089s-8.82,32.052-16.8,36.107" transform="translate(-154.266 -96.807)" fill="#262f38"/>
            <g id="Grupo_1108286" data-name="Grupo 1108286" transform="translate(178.494 71.607)" opacity="0.72">
              <g id="Grupo_1108285" data-name="Grupo 1108285">
                <g id="Grupo_1108284" data-name="Grupo 1108284" clip-path="url(#clip-path-5)">
                  <path id="Trazado_913265" data-name="Trazado 913265" d="M360.979,249.258c-7.985,4.049-17.752,1.186-22.4-7.627s5.718-19.064,3.333-23.357-3.81-5.958.245-11.676,1.827-11.952,0-14.933c-1.368-2.229-1.971-6.24-2.762-8.412.176-.552.339-.828.471-.759,1.381.678,3.132,8.518,6.93,13.364s4.839,9.611,2.184,16.259,1.99,12.128,9.724,6.447,5.066-13.6.578-19.353,1.695-10.333,1.657-18.632c.377,6.861-3.835,13.17,3.02,16.484,7.627,3.7,11.676,12.153,13.822,16.089s-8.82,32.052-16.8,36.107" transform="translate(-337.366 -180.578)" fill="#191e23"/>
                </g>
              </g>
            </g>
            <path id="Trazado_913266" data-name="Trazado 913266" d="M336.121,184.912c.515-3.915,2.06-4.018,3.194-1.957s-.206,7.314-1.6,6.078-1.6-4.121-1.6-4.121" transform="translate(-158.321 -109.434)" fill="#f3b8a5"/>
            <path id="Trazado_913267" data-name="Trazado 913267" d="M337.585,187.175c.008-1.437,1.6-2.4,1.437-.628s-.719,3.252-1.078,1.939Z" transform="translate(-158.969 -111.187)" fill="#dd938a"/>
            <path id="Trazado_913268" data-name="Trazado 913268" d="M344.057,206.541l2.547-.562-2.432,2.24Z" transform="translate(-161.833 -120.211)" fill="#dd938a"/>
            <rect id="Rectángulo_403550" data-name="Rectángulo 403550" width="91.835" height="127.646" transform="translate(67.5 49.716)" fill="#dadada"/>
            <rect id="Rectángulo_403551" data-name="Rectángulo 403551" width="58.866" height="6.137" transform="translate(82.671 78.435)" fill="#999"/>
            <rect id="Rectángulo_403552" data-name="Rectángulo 403552" width="58.866" height="6.137" transform="translate(82.671 98.255)" fill="#999"/>
            <rect id="Rectángulo_403553" data-name="Rectángulo 403553" width="58.866" height="6.137" transform="translate(82.671 118.076)" fill="#999"/>
            <rect id="Rectángulo_403554" data-name="Rectángulo 403554" width="58.866" height="6.137" transform="translate(82.671 137.897)" fill="#999"/>
            <g id="Grupo_1108289" data-name="Grupo 1108289" transform="translate(66.959 106.729)" opacity="0.21">
              <g id="Grupo_1108288" data-name="Grupo 1108288">
                <g id="Grupo_1108287" data-name="Grupo 1108287" clip-path="url(#clip-path-6)">
                  <path id="Trazado_913269" data-name="Trazado 913269" d="M156.841,243.58c.976,29.917-4.911,38.16-9.328,43.165s-1.312,15.261,37.451,23.977c10.406,2.34-34.213,8.7-34.213,8.7L137.292,304.7V264.96Z" transform="translate(-137.291 -243.58)" fill="#828282"/>
                </g>
              </g>
            </g>
            <path id="Trazado_913270" data-name="Trazado 913270" d="M154.056,108.224a4.707,4.707,0,0,1-3.487-1.54l-5.837-6.392a1.8,1.8,0,0,1,2.658-2.427l5.836,6.393a1.125,1.125,0,0,0,1.73-.081L165.43,90.288a1.8,1.8,0,0,1,2.874,2.167l-10.473,13.888a4.711,4.711,0,0,1-3.55,1.875c-.076,0-.151,0-.225,0" transform="translate(-73.417 -68.697)" fill="#39ab68"/>
            <path id="Trazado_913271" data-name="Trazado 913271" d="M106.86,329.914v22.092l-38.335-7.245,2.229-21.455Z" transform="translate(-39.901 -172.132)" fill="#262f38"/>
            <path id="Trazado_913272" data-name="Trazado 913272" d="M159.912,211.109l.572-2.344s-.686-3.659-.858-5.832a6.428,6.428,0,0,1,1.83-4.574,1.943,1.943,0,0,1,1.8-.629s1.343-2.687,1.686-3.774,1.6-3.659,2.63-3.544.343,1.772,0,3.144-.851,4-.851,4a35.975,35.975,0,0,1,4.51,4.517,5.2,5.2,0,0,1,.686,4.345,11.292,11.292,0,0,1-4.345,5.832L165.4,216.54Z" transform="translate(-80.209 -113.321)" fill="#f3b8a5"/>
            <path id="Trazado_913273" data-name="Trazado 913273" d="M160.22,225.277c2.661,1.73,7.354,2.405,7.354,2.405l-2.173,4.288-5.789-5.283Z" transform="translate(-80.21 -128.751)" fill="#dd938a"/>
            <line id="Línea_694" data-name="Línea 694" y1="3.226" x2="1.364" transform="translate(81.683 84.409)" fill="none" stroke="#dd938a" stroke-linecap="round" stroke-miterlimit="10" stroke-width="1"/>
            <path id="Trazado_913274" data-name="Trazado 913274" d="M106.059,164.959c2.951,7.323.875,19.457,0,20.222s-8.417-.765-10.385-1.312-4.481-6.449-4.481-6.449l2.951-9.182,5.356-5.247Z" transform="translate(-49.933 -101.188)" fill="#f3b8a5"/>
            <path id="Trazado_913275" data-name="Trazado 913275" d="M96.627,198.242a41.234,41.234,0,0,0-1.155,6.944H84.95v-8.943Z" transform="translate(-47.17 -115.903)" fill="#f3b8a5"/>
            <path id="Trazado_913276" data-name="Trazado 913276" d="M102.73,200.913a16.542,16.542,0,0,1-3.5-.471l3.083,2.483Z" transform="translate(-53.49 -117.761)" fill="#dd938a"/>
            <path id="Trazado_913277" data-name="Trazado 913277" d="M94.475,154.678l-.954.157-1.218.195c.672,3.22-1.325,6.754-1.325,6.754s-4.532,10.351-7.771,12.272c-1.438.854-6.133.345-7.445.012s-7.928-6.045-9.41-10.157c-1.632-4.526-1.619-7.784-.747-10.22h.007a9.7,9.7,0,0,1,2.956-4.149c2.951-2.517,11.808-4.6,11.695-5.907s-4.13-2.4-5.022-1.645c.119-.151,2.448-2.919,8.086-2.072,5.794.872,10.822,3.61,11.695,6.886s-.546,7.871-.546,7.871" transform="translate(-38.35 -90.907)" fill="#f7b313"/>
            <path id="Trazado_913278" data-name="Trazado 913278" d="M92.3,166.09c.672,3.221-1.325,6.754-1.325,6.754s-4.532,10.352-7.771,12.272c-1.438.854-6.133.346-7.445.013s-7.928-6.045-9.41-10.157c-1.632-4.526-1.619-7.784-.747-10.22h.007c-.188,8.33,4.294,14.538,9.353,14.632a10.615,10.615,0,0,0,10.307-6.7c1.626-3.892,5.568-3.754,7.031-6.592" transform="translate(-38.35 -101.968)" fill="#f47e14"/>
            <path id="Trazado_913279" data-name="Trazado 913279" d="M110.106,178.262c-.546-4.154-2.186-4.263-3.388-2.077s.219,7.761,1.694,6.449,1.694-4.372,1.694-4.372" transform="translate(-56.603 -106.402)" fill="#f3b8a5"/>
            <path id="Trazado_913280" data-name="Trazado 913280" d="M110.381,180.664c-.009-1.525-1.694-2.547-1.525-.666s.762,3.45,1.143,2.058Z" transform="translate(-57.744 -108.263)" fill="#dd938a"/>
            <path id="Trazado_913281" data-name="Trazado 913281" d="M119.4,183.082c.318,1.171,1.919,2.4.471,3.426a1.194,1.194,0,0,1-1.982-.579Z" transform="translate(-61.747 -110.079)" fill="#f3b8a5"/>
            <path id="Trazado_913282" data-name="Trazado 913282" d="M157.485,229.273l1.429-3.373,8.233,6-2.8,6Z" transform="translate(-79.269 -129.027)" fill="#dadada"/>
            <path id="Trazado_913283" data-name="Trazado 913283" d="M119.362,226.608a61.343,61.343,0,0,1-1.858,11.519c-1.745,7.213-4.538,19.083-8.029,23.038s-6.516,2.561-8.493,2.793c-1.852.22-4.319-4.369-4.626-4.946a.1.1,0,0,1-.013-.031l4.287,18.587s-4.752.546-11.3,1.074c-8.7.69-20.564,1.35-28.662.64-1.243-.113-2.392-.251-3.433-.426L52.7,276.061s-.232-24.9,0-29.905c.195-4.174.351-16.6,1.751-23.226a12.986,12.986,0,0,1,.992-3.151c.948-1.846,3.013-3.691,5.16-5.279l.012-.013c3.126-2.3,6.415-4.055,6.623-4.4a8.009,8.009,0,0,1,.062-4.508c.088-.157.182-.245.289-.257a7.711,7.711,0,0,1,.986-.075h.007c3.666-.132,13.98.483,14.927,1,1.067.578,0,4.539,0,4.539s8.167,3.722,12.705,7.213,6.629,11.286,7.558,16.867c0,0,3.961-10.935,5.354-13.032s1.745-2.787,1.745-2.787Z" transform="translate(-32.854 -119.879)" fill="#f74d57"/>
            <path id="Trazado_913284" data-name="Trazado 913284" d="M103.832,309.136s-4.752.546-11.3,1.074a14.084,14.084,0,0,0-2.831-1.061c-2.712-.59-12.618-1.764-14.978-3.064s-7.307-14.268-11.908-18.97-3.063-12.04-.8-5.33,12.115,9.561,23.434,13.7,13.678,2,11.2-3.07-5.894-16.635-4.011-15.806,3.3,9.077,6.893,13.929a.02.02,0,0,0,.006.013Z" transform="translate(-36.055 -151.448)" fill="#cc3644"/>
            <path id="Trazado_913285" data-name="Trazado 913285" d="M144.4,256.716c.839,4.76,2.252,13.541,2.252,13.541a116.363,116.363,0,0,0-1.47-15.665Z" transform="translate(-73.479 -141.724)" fill="#cc3644"/>
            <path id="Trazado_913286" data-name="Trazado 913286" d="M60.664,293.33c-1.239-.109-2.39-.251-3.429-.427L52.7,290.111s-.234-24.9,0-29.9c.193-4.179.352-16.6,1.754-23.229l1.2,1.528c1.955,1.956,2.985,15.994,3.119,23.957s1.44,23.592,1.44,23.592a52.564,52.564,0,0,1,.452,7.273" transform="translate(-32.852 -133.93)" fill="#cc3644"/>
            <path id="Trazado_913287" data-name="Trazado 913287" d="M115.181,166.387l-1.218.195c.508-.986.923-.86,1.218-.195" transform="translate(-60.009 -102.46)" fill="#262f38"/>
            <path id="Trazado_913288" data-name="Trazado 913288" d="M73.908,212.412c-1.852-.013-4.626,1.205-6.924,2.3,3.126-2.3,6.415-4.056,6.623-4.4a8.007,8.007,0,0,1,.062-4.507c.094-.019.176-.044.258-.063-.333,2.756,5.022,4.947,9.529,5.229,4.614.289-6.057,1.463-9.548,1.438" transform="translate(-39.219 -120.108)" fill="#cc3644"/>
            <path id="Trazado_913289" data-name="Trazado 913289" d="M325.657,110.55l-5.518,2.9,1.054-6.145-4.465-4.352,6.17-.9,2.759-5.591,2.759,5.591,6.17.9-4.465,4.352,1.054,6.145Z" transform="translate(-149.739 -71.749)" fill="#f7b313"/>
            <path id="Trazado_913290" data-name="Trazado 913290" d="M240.451,110.55l-5.518,2.9,1.054-6.145-4.465-4.352,6.17-.9,2.759-5.591,2.759,5.591,6.17.9-4.465,4.352,1.054,6.145Z" transform="translate(-112.032 -71.749)" fill="#f7b313"/>
            <path id="Trazado_913291" data-name="Trazado 913291" d="M282.448,96.355l-4.188,2.2.8-4.664-3.388-3.3,4.683-.68,2.094-4.243,2.094,4.243,4.683.68-3.388,3.3.8,4.664Z" transform="translate(-131.57 -66.97)" fill="#f7b313"/>
            <path id="Trazado_913292" data-name="Trazado 913292" d="M364.44,128.933l-2.88,1.514.55-3.207-2.33-2.271L363,124.5l1.44-2.917,1.44,2.917,3.22.468-2.33,2.271.55,3.207Z" transform="translate(-168.791 -82.864)" fill="#f7b313"/>
            <text id="iso_9100" data-name="iso 9100" transform="translate(89.581 67.529)" fill="#fff" font-size="9" font-family="SegoeUI, Segoe UI"><tspan x="0" y="0" letter-spacing="0.099em">i</tspan><tspan y="0" letter-spacing="0.1em">s</tspan><tspan y="0" letter-spacing="0.099em">o</tspan><tspan y="0" xml:space="preserve" letter-spacing="0.1em"> 910</tspan><tspan y="0">0</tspan></text>
            <path id="Trazado_913293" data-name="Trazado 913293" d="M271.507,190.988l-2.549-4.381-4.65,2.017,5.627-17.139,7.2,2.364Z" transform="translate(-126.542 -104.947)" fill="#f74d57"/>
            <path id="Trazado_913294" data-name="Trazado 913294" d="M295.77,190.988l2.549-4.381,4.649,2.017-5.627-17.139-7.2,2.364Z" transform="translate(-137.974 -104.947)" fill="#f74d57"/>
            <path id="Trazado_913295" data-name="Trazado 913295" d="M277.632,121.24c.365-2.3-5.213-2.3-4.848,0-.365-2.3-5.67-.58-4.611,1.5-1.059-2.078-5.572,1.2-3.922,2.85-1.65-1.65-4.928,2.863-2.85,3.922-2.078-1.059-3.8,4.246-1.5,4.611-2.3-.365-2.3,5.213,0,4.848-2.3.365-.58,5.67,1.5,4.611-2.078,1.059,1.2,5.572,2.85,3.922-1.65,1.65,2.863,4.928,3.922,2.85-1.059,2.078,4.246,3.8,4.611,1.5-.365,2.3,5.213,2.3,4.848,0,.365,2.3,5.67.58,4.611-1.5,1.059,2.078,5.572-1.2,3.922-2.85,1.65,1.65,4.928-2.863,2.85-3.922,2.078,1.059,3.8-4.246,1.5-4.611,2.3.365,2.3-5.213,0-4.848,2.3-.365.58-5.67-1.5-4.611,2.078-1.059-1.2-5.572-2.85-3.922,1.65-1.65-2.863-4.928-3.922-2.85,1.059-2.078-4.246-3.8-4.611-1.5" transform="translate(-123.827 -81.947)" fill="#cc3644"/>
            <path id="Trazado_913296" data-name="Trazado 913296" d="M291.479,139.479a13.337,13.337,0,1,1-13.337-13.337,13.337,13.337,0,0,1,13.337,13.337" transform="translate(-126.761 -84.881)" fill="#f74d57"/>
            <path id="Trazado_913297" data-name="Trazado 913297" d="M282.234,147.594l-4.188,2.2.8-4.664-3.388-3.3,4.683-.68,2.094-4.243,2.094,4.243,4.683.68-3.388,3.3.8,4.664Z" transform="translate(-131.476 -89.644)" fill="#f7b313"/>
          </g>
        </g>
        <g id="Grupo_1108293" data-name="Grupo 1108293">
          <g id="Grupo_1108292" data-name="Grupo 1108292" clip-path="url(#clip-path)">
            <path id="Trazado_913299" data-name="Trazado 913299" d="M344.055,11.62a1.222,1.222,0,0,0,0-.128,10.673,10.673,0,0,0-20.44-4.306,9.924,9.924,0,0,0-4.412-1.03,10.3,10.3,0,0,0-7.49,3.3,8.741,8.741,0,0,0-12.127,8.053h51.284a8.735,8.735,0,0,0-6.821-5.887" transform="translate(-132.578 -0.362)" fill="#e0ebff" fill-rule="evenodd"/>
            <path id="Trazado_913300" data-name="Trazado 913300" d="M16.033,42.347a.827.827,0,0,1,0-.083,6.952,6.952,0,0,1,13.312-2.8,6.462,6.462,0,0,1,2.873-.671,6.709,6.709,0,0,1,4.878,2.148,5.693,5.693,0,0,1,7.9,5.245h-33.4a5.69,5.69,0,0,1,4.442-3.834" transform="translate(-5.129 -15.627)" fill="#e0ebff" fill-rule="evenodd"/>
            <path id="Trazado_913301" data-name="Trazado 913301" d="M280.578,384.194a5.067,5.067,0,1,1-5.067-5.067,5.067,5.067,0,0,1,5.067,5.067" transform="translate(-119.68 -167.776)" fill="#e0ebff" fill-rule="evenodd"/>
            <path id="Trazado_913302" data-name="Trazado 913302" d="M241.247,377.116a2.533,2.533,0,1,1-2.533-2.534,2.534,2.534,0,0,1,2.533,2.534" transform="translate(-104.517 -165.764)" fill="#e0ebff" fill-rule="evenodd"/>
            <path id="Trazado_913303" data-name="Trazado 913303" d="M32.983,350.974a2.533,2.533,0,1,1-2.534-2.534,2.534,2.534,0,0,1,2.534,2.534" transform="translate(-12.354 -154.196)" fill="#e0ebff" fill-rule="evenodd"/>
            <circle id="Elipse_11597" data-name="Elipse 11597" cx="5.067" cy="5.067" r="5.067" transform="translate(42.655 211.351)" fill="none" stroke="#e0ebff" stroke-miterlimit="10" stroke-width="2"/>
            <circle id="Elipse_11598" data-name="Elipse 11598" cx="5.067" cy="5.067" r="5.067" transform="matrix(0.257, -0.966, 0.966, 0.257, 65.075, 16.205)" fill="none" stroke="#e0ebff" stroke-miterlimit="10" stroke-width="2"/>
            <line id="Línea_695" data-name="Línea 695" x1="10.748" y2="18.459" transform="translate(145.39 0.281)" fill="none" stroke="#e0ebff" stroke-miterlimit="10" stroke-width="2"/>
            <line id="Línea_696" data-name="Línea 696" x1="2.244" y2="15.185" transform="translate(120.676 2.845)" fill="none" stroke="#e0ebff" stroke-miterlimit="10" stroke-width="2"/>
          </g>
        </g>
      </g>
    </g>
  </g>
</svg>
