<svg xmlns="http://www.w3.org/2000/svg" xmlns:xlink="http://www.w3.org/1999/xlink" width="85" height="85" viewBox="0 0 85 85">
  <defs>
    <clipPath id="clip-path">
      <rect id="Rectángulo_403310" data-name="Rectángulo 403310" width="85" height="85" transform="translate(332.051 4116)" fill="#fff" stroke="#707070" stroke-width="1"/>
    </clipPath>
  </defs>
  <g id="Enmascarar_grupo_1098708" data-name="Enmascarar grupo 1098708" transform="translate(-332.051 -4116)" clip-path="url(#clip-path)">
    <g id="administracion" transform="translate(330.68 4114.629)">
      <g id="Grupo_1101656" data-name="Grupo 1101656">
        <g id="Grupo_1101643" data-name="Grupo 1101643">
          <path id="Trazado_912627" data-name="Trazado 912627" d="M83.629,58.952v8.226H69.919V58.952Z" fill="#fcd770"/>
        </g>
        <g id="Grupo_1101644" data-name="Grupo 1101644">
          <path id="Trazado_912628" data-name="Trazado 912628" d="M83.629,75.4v8.226H69.919V75.4h13.71Z" fill="#fcd770"/>
        </g>
        <g id="Grupo_1101645" data-name="Grupo 1101645">
          <path id="Trazado_912629" data-name="Trazado 912629" d="M56.21,79.516v4.113H42.5V75.4H56.21Z" fill="#fcd770"/>
        </g>
        <g id="Grupo_1101646" data-name="Grupo 1101646">
          <path id="Trazado_912630" data-name="Trazado 912630" d="M56.21,63.065v4.113H42.5V58.952H56.21Z" fill="#fcd770"/>
        </g>
        <g id="Grupo_1101647" data-name="Grupo 1101647">
          <path id="Trazado_912631" data-name="Trazado 912631" d="M2.742,85V74.032h13.71V85Z" fill="#ff826e"/>
        </g>
        <g id="Grupo_1101648" data-name="Grupo 1101648">
          <path id="Trazado_912632" data-name="Trazado 912632" d="M2.742,68.548V57.581h13.71V68.548Z" fill="#ff826e"/>
        </g>
        <g id="Grupo_1101649" data-name="Grupo 1101649">
          <path id="Trazado_912633" data-name="Trazado 912633" d="M2.742,52.1V41.129h13.71V52.1Z" fill="#ff826e"/>
        </g>
        <g id="Grupo_1101650" data-name="Grupo 1101650">
          <path id="Trazado_912634" data-name="Trazado 912634" d="M83.478,15.231A5.158,5.158,0,0,0,79.8,13.71H48.752L47.12,28.283a5.182,5.182,0,0,1-5.155,4.62H39.909l.713,6.348a5.182,5.182,0,0,0,5.155,4.62h2.207v3.551a1.916,1.916,0,0,0,1.4,1.851,1.681,1.681,0,0,0,.535.082,1.939,1.939,0,0,0,1.371-.562l4.922-4.922,21.935-.027a5.192,5.192,0,0,0,4.62-4.593l2.207-19.769c.014-.192.027-.384.027-.576a5.158,5.158,0,0,0-1.522-3.674Z" fill="#ccd1d9"/>
        </g>
        <g id="Grupo_1101651" data-name="Grupo 1101651">
          <path id="Trazado_912635" data-name="Trazado 912635" d="M47.833,4.264a5.158,5.158,0,0,0-3.674-1.522H7.938a5.2,5.2,0,0,0-5.2,5.2c0,.192.014.384.027.576L4.977,28.283A5.192,5.192,0,0,0,9.6,32.876L28.79,32.9l4.922,4.922a1.939,1.939,0,0,0,3.3-1.371V32.9h4.949a5.182,5.182,0,0,0,5.155-4.62L48.752,13.71l.576-5.2c.014-.192.027-.384.027-.576a5.158,5.158,0,0,0-1.522-3.674Z" fill="#e6e9ed"/>
        </g>
        <g id="Grupo_1101652" data-name="Grupo 1101652">
          <path id="Trazado_912636" data-name="Trazado 912636" d="M28.79,28.79V32.9H10.131c-.178,0-.356-.014-.535-.027V28.79a9.6,9.6,0,1,1,19.194,0Z" fill="#fcd770"/>
        </g>
        <g id="Grupo_1101653" data-name="Grupo 1101653">
          <path id="Trazado_912637" data-name="Trazado 912637" d="M78.145,39.758v4.085c-.178.014-.356.027-.535.027H58.952V39.758a9.6,9.6,0,0,1,19.194,0Z" fill="#b4dd7f"/>
        </g>
        <g id="Grupo_1101654" data-name="Grupo 1101654">
          <circle id="Elipse_11522" data-name="Elipse 11522" cx="5.484" cy="5.484" r="5.484" transform="translate(13.71 8.226)" fill="#f0d0b4"/>
        </g>
        <g id="Grupo_1101655" data-name="Grupo 1101655">
          <circle id="Elipse_11523" data-name="Elipse 11523" cx="5.484" cy="5.484" r="5.484" transform="translate(63.065 19.194)" fill="#f0d0b4"/>
        </g>
      </g>
      <g id="Grupo_1101657" data-name="Grupo 1101657">
        <path id="Trazado_912638" data-name="Trazado 912638" d="M31.532,6.855h13.71V9.6H31.532Z"/>
        <path id="Trazado_912639" data-name="Trazado 912639" d="M31.532,12.339h13.71v2.742H31.532Z"/>
        <path id="Trazado_912640" data-name="Trazado 912640" d="M37.016,17.823h2.742v2.742H37.016Z"/>
        <path id="Trazado_912641" data-name="Trazado 912641" d="M42.5,17.823h2.742v2.742H42.5Z"/>
        <path id="Trazado_912642" data-name="Trazado 912642" d="M31.532,17.823h2.742v2.742H31.532Z"/>
        <path id="Trazado_912643" data-name="Trazado 912643" d="M52.263,49.757l4.515-4.515H77.606A6.564,6.564,0,0,0,84.135,39.4l2.2-19.767a6.8,6.8,0,0,0,.04-.728A6.574,6.574,0,0,0,79.8,12.339H50.277l.409-3.674a6.752,6.752,0,0,0,.04-.727,6.574,6.574,0,0,0-6.567-6.567H7.938A6.574,6.574,0,0,0,1.371,7.938a6.727,6.727,0,0,0,.04.725l2.2,19.769a6.562,6.562,0,0,0,6.529,5.842H23.306V45.242H17.823V39.758H1.371v13.71H17.823V47.984h5.484v13.71H17.823V56.21H1.371v13.71H17.823V64.435h5.484v13.71H17.823V72.661H1.371v13.71H17.823V80.887h8.226V64.435H41.129v4.113h6.855v5.484H41.129V85H57.581V80.887H68.548V85H85V74.032H78.145V68.548H85V57.581H68.548v4.113H57.581V57.581H50.726V50.613a3.319,3.319,0,0,0,1.537-.857Zm-37.182.969H4.113V42.5H15.081Zm0,16.452H4.113V58.952H15.081Zm0,16.452H4.113V75.4H15.081ZM64.435,24.677a4.113,4.113,0,1,1,4.113,4.113A4.118,4.118,0,0,1,64.435,24.677ZM76.774,42.5H60.323V39.758a8.226,8.226,0,1,1,16.452,0Zm-26.8-27.419H79.8a3.829,3.829,0,0,1,3.825,3.825,3.653,3.653,0,0,1-.025.422L81.408,39.1a3.807,3.807,0,0,1-1.893,2.885V39.758a10.975,10.975,0,0,0-6.437-9.977,6.854,6.854,0,1,0-9.061,0,10.975,10.975,0,0,0-6.437,9.977V42.5H55.642l-5.318,5.318a.589.589,0,0,1-.969-.4V42.5H45.781a3.821,3.821,0,0,1-3.8-3.4l-.536-4.823h.52a6.564,6.564,0,0,0,6.529-5.842ZM6.332,28.13,4.138,8.359a3.611,3.611,0,0,1-.025-.421A3.829,3.829,0,0,1,7.938,4.113H44.159a3.829,3.829,0,0,1,3.825,3.825,3.652,3.652,0,0,1-.025.422l-2.2,19.768a3.82,3.82,0,0,1-3.8,3.4H35.645v4.916a.59.59,0,0,1-.969.4l-4.515-4.515V28.79a10.975,10.975,0,0,0-6.437-9.977,6.855,6.855,0,1,0-9.062,0A10.975,10.975,0,0,0,8.226,28.79v2.224A3.81,3.81,0,0,1,6.332,28.13Zm8.748-14.42a4.113,4.113,0,1,1,4.113,4.113A4.118,4.118,0,0,1,15.081,13.71ZM27.419,31.532H10.968V28.79a8.226,8.226,0,0,1,16.452,0ZM54.839,82.258H43.871V76.774H54.839Zm27.419,0H71.29V76.774H82.258ZM71.29,60.323H82.258v5.484H71.29Zm-2.742,4.113v4.113H75.4v5.484H68.548v4.113H57.581V74.032H50.726V68.548h6.855V64.435Zm-13.71,1.371H43.871V60.323H54.839Zm-13.71-8.226v4.113H26.048V34.274h2.174l4.513,4.513a3.31,3.31,0,0,0,5.651-2.339V34.274h.3l.569,5.126a6.562,6.562,0,0,0,6.529,5.842h.832v2.174a3.3,3.3,0,0,0,1.371,2.669v7.5Z"/>
        <path id="Trazado_912644" data-name="Trazado 912644" d="M6.855,78.145h5.484v2.742H6.855Z"/>
        <path id="Trazado_912645" data-name="Trazado 912645" d="M6.855,61.694h5.484v2.742H6.855Z"/>
        <path id="Trazado_912646" data-name="Trazado 912646" d="M6.855,45.242h5.484v2.742H6.855Z"/>
      </g>
    </g>
  </g>
</svg>
