<svg xmlns="http://www.w3.org/2000/svg" xmlns:xlink="http://www.w3.org/1999/xlink" width="85" height="85" viewBox="0 0 85 85">
  <defs>
    <clipPath id="clip-path">
      <rect id="Rectángulo_403311" data-name="Rectángulo 403311" width="85" height="85" transform="translate(332.051 4512)" fill="#fff" stroke="#707070" stroke-width="1"/>
    </clipPath>
  </defs>
  <g id="Enmascarar_grupo_1098709" data-name="Enmascarar grupo 1098709" transform="translate(-332.051 -4512)" clip-path="url(#clip-path)">
    <g id="organizacion" transform="translate(330.68 4510.629)">
      <g id="Grupo_1101673" data-name="Grupo 1101673">
        <g id="Grupo_1101658" data-name="Grupo 1101658">
          <path id="Trazado_912647" data-name="Trazado 912647" d="M21.935,46.613l2.742,13.71H16.452l2.742-13.71Z" fill="#ffeaa7"/>
        </g>
        <g id="Grupo_1101659" data-name="Grupo 1101659">
          <path id="Trazado_912648" data-name="Trazado 912648" d="M22.964,43.528l-1.028,3.085H19.194l-1.028-3.085,2.4-2.4Z" fill="#fcd770"/>
        </g>
        <g id="Grupo_1101660" data-name="Grupo 1101660">
          <path id="Trazado_912649" data-name="Trazado 912649" d="M24.677,45.242l2.564-7.677A14.936,14.936,0,0,1,38.387,52v8.322H24.677l-2.742-13.71,1.028-3.085Z" fill="#b4dd7f"/>
        </g>
        <g id="Grupo_1101661" data-name="Grupo 1101661">
          <path id="Trazado_912650" data-name="Trazado 912650" d="M16.452,45.242l1.714-1.714,1.028,3.085-2.742,13.71H2.742V52A14.941,14.941,0,0,1,13.888,37.565Z" fill="#b4dd7f"/>
        </g>
        <g id="Grupo_1101662" data-name="Grupo 1101662">
          <path id="Trazado_912651" data-name="Trazado 912651" d="M20.565,39.758l4.319-3.249a2.692,2.692,0,0,0,1.494.85q.432.082.864.206l-2.564,7.677-1.714-1.714-2.4-2.4-2.4,2.4-1.714,1.714-2.564-7.677q.432-.123.864-.206a2.692,2.692,0,0,0,1.494-.85Z" fill="#a0d468"/>
        </g>
        <g id="Grupo_1101663" data-name="Grupo 1101663">
          <path id="Trazado_912652" data-name="Trazado 912652" d="M68.548,16.452v2.742h-.466a2.741,2.741,0,0,0-1.947,4.675l.343.343-3.88,3.88-.343-.343A2.741,2.741,0,0,0,57.581,29.7v.466H52.1V29.7a2.741,2.741,0,0,0-4.675-1.947l-.343.343-3.88-3.88.343-.343A2.741,2.741,0,0,0,41.6,19.194h-.466V13.71H41.6a2.741,2.741,0,0,0,1.947-4.675L43.2,8.692l3.88-3.88.343.343A2.741,2.741,0,0,0,52.1,3.208V2.742h5.484v.466a2.741,2.741,0,0,0,4.675,1.947l.343-.343,3.88,3.88-.343.343a2.741,2.741,0,0,0,1.947,4.675h.466Zm-8.226,0a5.484,5.484,0,1,0-5.484,5.484A5.482,5.482,0,0,0,60.323,16.452Z" fill="#fcd770"/>
        </g>
        <g id="Grupo_1101664" data-name="Grupo 1101664">
          <circle id="Elipse_11524" data-name="Elipse 11524" cx="13.71" cy="13.71" r="13.71" transform="translate(57.581 32.903)" fill="#69d6f4"/>
        </g>
        <g id="Grupo_1101665" data-name="Grupo 1101665">
          <path id="Trazado_912653" data-name="Trazado 912653" d="M82.148,69.385a1.38,1.38,0,0,1,.11.535v13.71A1.375,1.375,0,0,1,80.887,85H67.177a1.375,1.375,0,0,1-1.371-1.371V69.919a1.375,1.375,0,0,1,1.371-1.371h13.71a1.393,1.393,0,0,1,1.261.823Z" fill="#ff826e"/>
        </g>
        <g id="Grupo_1101666" data-name="Grupo 1101666">
          <path id="Trazado_912654" data-name="Trazado 912654" d="M54.729,69.385a1.38,1.38,0,0,1,.11.535v13.71A1.375,1.375,0,0,1,53.468,85H39.758a1.375,1.375,0,0,1-1.371-1.371V69.919a1.375,1.375,0,0,1,1.371-1.371h13.71a1.393,1.393,0,0,1,1.261.823Z" fill="#ff826e"/>
        </g>
        <g id="Grupo_1101667" data-name="Grupo 1101667">
          <path id="Trazado_912655" data-name="Trazado 912655" d="M27.31,69.385a1.38,1.38,0,0,1,.11.535v13.71A1.375,1.375,0,0,1,26.048,85H12.339a1.375,1.375,0,0,1-1.371-1.371V69.919a1.375,1.375,0,0,1,1.371-1.371h13.71a1.393,1.393,0,0,1,1.261.823Z" fill="#ff826e"/>
        </g>
        <g id="Grupo_1101668" data-name="Grupo 1101668">
          <path id="Trazado_912656" data-name="Trazado 912656" d="M20.565,13.71H16.452L12.49,15.7a2.742,2.742,0,0,0-1.522,2.454v1.042H9.6L8.527,15.972a5.551,5.551,0,0,1-.3-1.837,5.809,5.809,0,0,1,4.4-5.635l1.083-.274a10.122,10.122,0,0,1,3.66-4,9.93,9.93,0,0,1,5.21-1.481h.562a9.778,9.778,0,0,1,9.473,12.133l-.4,1.577-.685,2.742H30.161v-1.6a2.75,2.75,0,0,0-.809-1.947L27.419,13.71Z" fill="#656d78"/>
        </g>
        <g id="Grupo_1101669" data-name="Grupo 1101669">
          <path id="Trazado_912657" data-name="Trazado 912657" d="M34.836,23.869a2.681,2.681,0,0,1-1.933.809H30.161l-.11-.014a7.355,7.355,0,0,0,.11-1.357V19.194H32.9a2.75,2.75,0,0,1,2.742,2.742A2.681,2.681,0,0,1,34.836,23.869Z" fill="#f0d0b4"/>
        </g>
        <g id="Grupo_1101670" data-name="Grupo 1101670">
          <path id="Trazado_912658" data-name="Trazado 912658" d="M24.883,36.509l-4.319,3.249-4.319-3.249a2.663,2.663,0,0,0,.631-1.179l.727-2.893a9.64,9.64,0,0,0,5.923,0l.727,2.893a2.663,2.663,0,0,0,.631,1.179Z" fill="#f0d0b4"/>
        </g>
        <g id="Grupo_1101671" data-name="Grupo 1101671">
          <path id="Trazado_912659" data-name="Trazado 912659" d="M20.565,13.71h6.855l1.933,1.933a2.75,2.75,0,0,1,.809,1.947v5.717a7.355,7.355,0,0,1-.11,1.357,9.586,9.586,0,0,1-16.273,5.429,9.462,9.462,0,0,1-2.7-5.429,7.355,7.355,0,0,1-.11-1.357V18.152A2.742,2.742,0,0,1,12.49,15.7l3.962-1.988Z" fill="#f0d0b4"/>
        </g>
        <g id="Grupo_1101672" data-name="Grupo 1101672">
          <path id="Trazado_912660" data-name="Trazado 912660" d="M10.968,23.306a7.355,7.355,0,0,0,.11,1.357l-.11.014H8.226a2.762,2.762,0,0,1-2.742-2.742,2.75,2.75,0,0,1,2.742-2.742h2.742Z" fill="#f0d0b4"/>
        </g>
      </g>
      <g id="Grupo_1101674" data-name="Grupo 1101674">
        <circle id="Elipse_11525" data-name="Elipse 11525" cx="1.371" cy="1.371" r="1.371" transform="translate(15.081 17.823)"/>
        <circle id="Elipse_11526" data-name="Elipse 11526" cx="1.371" cy="1.371" r="1.371" transform="translate(23.306 17.823)"/>
        <path id="Trazado_912661" data-name="Trazado 912661" d="M23.306,24.354a3.066,3.066,0,0,1-5.484,0l-.144-.289-2.453,1.227.144.288a5.807,5.807,0,0,0,10.389,0l.144-.289L23.45,24.063Z"/>
        <path id="Trazado_912662" data-name="Trazado 912662" d="M19.191,9.831h2.742v7.754H19.191Z" transform="translate(-3.671 18.557) rotate(-45)"/>
        <path id="Trazado_912663" data-name="Trazado 912663" d="M83.929,64.95,81.969,67.4a2.74,2.74,0,0,0-1.082-.223H75.4V61.11a15.064,15.064,0,0,0,0-28.993V19.194a4.118,4.118,0,0,0-4.113-4.113H69.919V12.339H68.078A1.371,1.371,0,0,1,67.106,10l1.305-1.3L62.6,2.88l-1.3,1.3a1.371,1.371,0,0,1-2.34-.969V1.371H50.726V3.212a1.371,1.371,0,0,1-2.342.968l-1.3-1.3L41.266,8.7l1.3,1.3a1.371,1.371,0,0,1-.971,2.34H39.758v2.742H33.964A11.1,11.1,0,0,0,23.138,1.371h-.555a11.224,11.224,0,0,0-9.794,5.672l-.489.123A7.182,7.182,0,0,0,7.225,16.41l.488,1.466a4.1,4.1,0,0,0,.513,8.172H9.957a10.992,10.992,0,0,0,6.021,7.207L15.543,35a1.377,1.377,0,0,1-1.061,1.012A16.353,16.353,0,0,0,1.371,52v9.689H39.758V52A16.352,16.352,0,0,0,26.648,36.013,1.375,1.375,0,0,1,25.586,35l-.436-1.744a11,11,0,0,0,6.021-7.207H32.9a4.1,4.1,0,0,0,.374-8.187l.01-.04h6.471v2.742H41.6a1.371,1.371,0,0,1,.972,2.339l-1.305,1.3,5.816,5.817,1.3-1.3a1.371,1.371,0,0,1,2.34.969v1.841h8.226V29.691a1.371,1.371,0,0,1,2.342-.968l1.3,1.3,5.816-5.817-1.3-1.3a1.371,1.371,0,0,1,.971-2.34h1.841V17.823H71.29a1.372,1.372,0,0,1,1.371,1.371V31.6c-.452-.041-.908-.07-1.371-.07a15.081,15.081,0,0,0,0,30.161c.463,0,.919-.029,1.371-.07v5.554H67.177a2.745,2.745,0,0,0-2.742,2.742V75.4H56.21V69.919c0-.062-.014-.119-.018-.181l2.461-3.075L56.51,64.95,54.549,67.4a2.74,2.74,0,0,0-1.082-.223H39.758a2.745,2.745,0,0,0-2.742,2.742V75.4H28.79V69.919c0-.062-.014-.119-.018-.181l2.461-3.075L29.091,64.95,27.13,67.4a2.741,2.741,0,0,0-1.082-.223H12.339A2.745,2.745,0,0,0,9.6,69.919v13.71a2.745,2.745,0,0,0,2.742,2.742h13.71a2.745,2.745,0,0,0,2.742-2.742V78.145h8.226v5.484a2.745,2.745,0,0,0,2.742,2.742h13.71a2.745,2.745,0,0,0,2.742-2.742V78.145h8.226v5.484a2.745,2.745,0,0,0,2.742,2.742h13.71a2.745,2.745,0,0,0,2.742-2.742V69.919c0-.062-.014-.119-.018-.181l2.461-3.075ZM9.6,23.306H8.226a1.371,1.371,0,0,1,0-2.742H9.6Zm6.649,14.926,3.015,2.262L17.049,42.7l-1.4-4.19A4.135,4.135,0,0,0,16.246,38.232Zm4.319-.188-2.523-1.892a4.211,4.211,0,0,0,.16-.487l.395-1.578a10.48,10.48,0,0,0,3.936,0l.395,1.578a3.984,3.984,0,0,0,.16.488ZM21.4,43.9l-.448,1.344h-.766L19.732,43.9l.832-.831ZM15.327,58.952H12.339v-10.4a6.011,6.011,0,0,0-1.773-4.279L8.627,46.211a3.29,3.29,0,0,1,.969,2.34v10.4H4.113V52a13.609,13.609,0,0,1,8.9-12.731l2.835,8.507,1.714-1.714.211.635Zm2.8,0,2.194-10.968h.495l2.194,10.968Zm9.988-19.678A13.606,13.606,0,0,1,37.016,52v6.947H31.532v-10.4a3.287,3.287,0,0,1,.969-2.34l-1.939-1.939a6.011,6.011,0,0,0-1.773,4.279v10.4H25.8L23.352,46.7l.211-.635,1.714,1.714Zm-2.636-.76-1.4,4.19-2.211-2.21,3.016-2.262a4.263,4.263,0,0,0,.592.282Zm5.537-22.892a4.126,4.126,0,0,0-.685-.943L25.647,10l-1.939,1.939,4.68,4.68a1.365,1.365,0,0,1,.4.971v5.718a8.226,8.226,0,0,1-16.452,0v-5.16A1.362,1.362,0,0,1,13.1,16.92l3.969-1.984-1.227-2.453L11.87,14.468a4.087,4.087,0,0,0-1.807,1.789l-.239-.716a4.444,4.444,0,0,1,3.138-5.716l1.69-.424.282-.563a8.5,8.5,0,0,1,7.647-4.726h.555a8.393,8.393,0,0,1,8.144,10.43Zm3.262,6.313A1.372,1.372,0,0,1,32.9,23.306H31.532V20.565H32.9A1.372,1.372,0,0,1,34.274,21.935Zm32.9-4.018A4.124,4.124,0,0,0,64.6,24.14l-2.073,2.073A4.124,4.124,0,0,0,56.3,28.79H53.372a4.124,4.124,0,0,0-6.223-2.577L45.076,24.14A4.124,4.124,0,0,0,42.5,17.917V14.985a4.124,4.124,0,0,0,2.577-6.223l2.073-2.073a4.126,4.126,0,0,0,6.224-2.576h2.933a4.042,4.042,0,0,0,2.443,2.9,4.036,4.036,0,0,0,3.78-.322L64.6,8.763a4.124,4.124,0,0,0,2.577,6.223v2.931ZM12.339,83.629V69.919H25.115L19.294,77.2l-1.7-2.553-2.281,1.52,3.782,5.673,6.955-8.695,0,10.487Zm27.419,0V69.919H52.534L46.713,77.2l-1.7-2.553-2.281,1.52,3.783,5.673,6.955-8.695,0,10.487ZM69.919,53.468v5.4A12.354,12.354,0,0,1,59.032,47.984h5.4V45.242h-5.4A12.356,12.356,0,0,1,69.919,34.355v5.4h2.742v-5.4A12.356,12.356,0,0,1,83.548,45.242h-5.4v2.742h5.4A12.354,12.354,0,0,1,72.661,58.871v-5.4ZM67.177,83.629V69.919H79.953L74.132,77.2l-1.7-2.553-2.281,1.52,3.783,5.673,6.955-8.695,0,10.487Z"/>
        <path id="Trazado_912664" data-name="Trazado 912664" d="M77.176,40.16l-6.06,6.06L67.938,44.1l-1.522,2.281,5.048,3.366,7.65-7.65Z"/>
        <path id="Trazado_912665" data-name="Trazado 912665" d="M54.839,9.6a6.855,6.855,0,1,0,6.855,6.855A6.863,6.863,0,0,0,54.839,9.6Zm0,10.968a4.113,4.113,0,1,1,4.113-4.113A4.118,4.118,0,0,1,54.839,20.565Z"/>
      </g>
    </g>
  </g>
</svg>
